<svg xmlns="http://www.w3.org/2000/svg" width="13" height="26" viewBox="0 0 13 26">
  <defs>
    <style>
      .cls-1 {
        fill: #385c8e;
        fill-rule: evenodd;
      }
    </style>
  </defs>
  <path class="cls-1" d="M905.415,1152.85h2.821v11.73a0.419,0.419,0,0,0,.415.42h4.783a0.418,0.418,0,0,0,.415-0.42V1152.9h3.243a0.417,0.417,0,0,0,.413-0.37l0.492-4.32a0.425,0.425,0,0,0-.1-0.33,0.45,0.45,0,0,0-.31-0.14H913.85v-2.7a1.117,1.117,0,0,1,1.293-1.23h2.442a0.419,0.419,0,0,0,.415-0.42v-3.97a0.419,0.419,0,0,0-.415-0.42h-3.52a6.423,6.423,0,0,0-4.218,1.61,4.489,4.489,0,0,0-1.47,3.97v3.16h-2.962a0.419,0.419,0,0,0-.415.42v4.27A0.419,0.419,0,0,0,905.415,1152.85Z" transform="translate(-905 -1139)"/>
</svg>
