<svg xmlns="http://www.w3.org/2000/svg" width="40" height="40" viewBox="0 0 40 40" fill='#cccccc'>
  <path class="cls-1" d="M1662.86,6129.17h-13.72a3.973,3.973,0,0,0-3.97,3.97v13.72a3.973,3.973,0,0,0,3.97,3.97h13.72a3.973,3.973,0,0,0,3.97-3.97v-13.72a3.973,3.973,0,0,0-3.97-3.97h0Zm-6.86,17.96a7.13,7.13,0,1,1,7.13-7.13,7.14,7.14,0,0,1-7.13,7.13h0Zm7.36-12.79a1.685,1.685,0,1,1,1.69-1.68,1.686,1.686,0,0,1-1.69,1.68h0Zm0,0-7.36,1.54a4.12,4.12,0,1,0,4.12,4.12,4.127,4.127,0,0,0-4.12-4.12h0Zm0,0M1636,6120v40h40v-40h-40Zm33.84,26.86a6.986,6.986,0,0,1-6.98,6.98h-13.72a6.986,6.986,0,0,1-6.98-6.98v-13.72a7,7,0,0,1,6.98-6.99h13.72a7,7,0,0,1,6.98,6.99v13.72Zm0,0" transform="translate(-1636 -6120)"/>
</svg>
