<svg xmlns="http://www.w3.org/2000/svg" width="40" height="40" viewBox="0 0 40 40" fill='#cccccc'>
  <path class="cls-1" d="M1825,6136.51a3.55,3.55,0,1,0-3.55-3.55A3.551,3.551,0,0,0,1825,6136.51ZM1805,6120v40h40v-40h-40Zm20,5.75a7.215,7.215,0,1,1-7.21,7.21A7.213,7.213,0,0,1,1825,6125.75Zm6.41,18.58a11.929,11.929,0,0,1-5.01,1.5l1.15,1.15,4.25,4.25a1.648,1.648,0,0,1,0,2.34l-0.19.2a1.666,1.666,0,0,1-2.34,0l-4.25-4.25-4.25,4.25a1.658,1.658,0,0,1-1.17.48h0a1.641,1.641,0,0,1-1.17-.48l-0.2-.2a1.666,1.666,0,0,1,0-2.34c1.08-1.08,2.64-2.64,4.26-4.25l1.14-1.14a12.011,12.011,0,0,1-5.04-1.51c-1.81-1.16-2.62-1.85-1.91-3.27,0.41-.82,1.54-1.5,3.04-0.32a9.512,9.512,0,0,0,10.56,0c1.5-1.18,2.63-.5,3.04.32C1834.03,6142.48,1833.22,6143.17,1831.41,6144.33Z" transform="translate(-1805 -6120)"/>
</svg>
