<svg xmlns="http://www.w3.org/2000/svg" width="15" height="25" viewBox="0 0 15 25">
  <defs>
    <style>
      .cls-1 {
        fill: #ee8208;
        fill-rule: evenodd;
      }
    </style>
  </defs>
  <path class="cls-1" d="M1153.77,1153.43c-0.35-.72-1.34-1.32-2.65-0.28a8.323,8.323,0,0,1-9.24,0c-1.31-1.04-2.3-.44-2.65.28-0.63,1.25.08,1.85,1.66,2.87a10.549,10.549,0,0,0,4.41,1.32l-1,1c-1.41,1.42-2.77,2.78-3.72,3.73a1.461,1.461,0,0,0,0,2.05l0.17,0.17a1.408,1.408,0,0,0,1.02.43h0.01a1.408,1.408,0,0,0,1.02-.43l3.72-3.72c1.41,1.41,2.77,2.78,3.72,3.72a1.431,1.431,0,0,0,2.04,0l0.17-.17a1.443,1.443,0,0,0,0-2.05l-3.72-3.73-1-1.01a10.509,10.509,0,0,0,4.38-1.31c1.58-1.02,2.29-1.62,1.66-2.87h0Zm-7.27-10.22a3.115,3.115,0,1,1-3.1,3.12,3.113,3.113,0,0,1,3.1-3.12h0Zm0,9.44a6.325,6.325,0,1,0-6.31-6.32,6.312,6.312,0,0,0,6.31,6.32h0Z" transform="translate(-1139 -1140)"/>
</svg>
