<svg xmlns="http://www.w3.org/2000/svg" width="28" height="23" viewBox="0 0 28 23">
  <defs>
    <style>
      .cls-1 {
        fill: #03a9f4;
        fill-rule: evenodd;
      }
    </style>
  </defs>
  <path class="cls-1" d="M979,1143.72a11.979,11.979,0,0,1-3.308.92,5.774,5.774,0,0,0,2.526-3.21,11.537,11.537,0,0,1-3.64,1.41,5.705,5.705,0,0,0-4.193-1.84,5.771,5.771,0,0,0-5.737,5.8,6.124,6.124,0,0,0,.133,1.33,16.216,16.216,0,0,1-11.832-6.07,5.886,5.886,0,0,0-.785,2.93,5.821,5.821,0,0,0,2.549,4.82,5.481,5.481,0,0,1-2.593-.71v0.06a5.824,5.824,0,0,0,4.6,5.71,6.075,6.075,0,0,1-1.5.19,4.889,4.889,0,0,1-1.087-.1,5.792,5.792,0,0,0,5.364,4.04,11.486,11.486,0,0,1-7.117,2.48,12.37,12.37,0,0,1-1.374-.08,16.094,16.094,0,0,0,8.806,2.6c10.563,0,16.338-8.85,16.338-16.51,0-.26-0.009-0.51-0.021-0.75A11.522,11.522,0,0,0,979,1143.72Z" transform="translate(-951 -1141)"/>
</svg>
