<svg xmlns="http://www.w3.org/2000/svg" width="40" height="40" viewBox="0 0 40 40" fill='#cccccc'>
  <path class="cls-1" d="M1692,6120v40h40v-40h-40Zm31.71,14.39c0.01,0.23.01,0.47,0.01,0.71a17.212,17.212,0,0,1-26.42,14.55h0a11.59,11.59,0,0,0,8.87-2.54,5.944,5.944,0,0,1-5.55-4.22,5.493,5.493,0,0,0,2.66-.11,5.727,5.727,0,0,1-4.77-5.99,6.138,6.138,0,0,0,2.61.77c-4.61-4.05-1.73-7.99-1.73-7.99a18.231,18.231,0,0,0,12.41,6.27,5.646,5.646,0,0,1-.16-1.37,6.042,6.042,0,0,1,10.45-4.13c0.31-.09.6-0.18,0.89-0.27a21.025,21.025,0,0,0,2.93-1.22c-0.29,1.76-2.47,3.24-2.63,3.35h0a14.208,14.208,0,0,0,3.42-.88A13.684,13.684,0,0,1,1723.71,6134.39Z" transform="translate(-1692 -6120)"/>
</svg>
