<svg xmlns="http://www.w3.org/2000/svg" width="40" height="40" viewBox="0 0 40 40" fill='#cccccc'>
  <path class="cls-1" d="M1749,6120v40h40v-40h-40Zm29.99,22.13c0.91,0.9,1.89,1.74,2.71,2.73a7.945,7.945,0,0,1,.97,1.4,1,1,0,0,1-.61,1.56h-4.04a3.089,3.089,0,0,1-2.57-1.05c-0.55-.56-1.07-1.17-1.61-1.76a3.977,3.977,0,0,0-.72-0.64,0.849,0.849,0,0,0-1.35.32,4.245,4.245,0,0,0-.42,1.89,1.074,1.074,0,0,1-1.29,1.24,10.436,10.436,0,0,1-5.77-1.24,12.727,12.727,0,0,1-3.88-3.64,48.811,48.811,0,0,1-5.12-9.11c-0.32-.72-0.08-1.11.71-1.12,1.32-.03,2.63-0.02,3.95,0a1.149,1.149,0,0,1,1.09.82,25.269,25.269,0,0,0,2.68,4.96,4.277,4.277,0,0,0,1.01,1.11,0.617,0.617,0,0,0,1.05-.31,3.342,3.342,0,0,0,.23-1.04,15.835,15.835,0,0,0-.07-3.64,1.513,1.513,0,0,0-1.29-1.39c-0.39-.08-0.33-0.22-0.14-0.44a1.444,1.444,0,0,1,1.23-.62h4.56a1.093,1.093,0,0,1,.98,1.19v5.07a1.488,1.488,0,0,0,.65,1.29,0.9,0.9,0,0,0,.91-0.45,15.692,15.692,0,0,0,2.56-3.94c0.31-.63.58-1.27,0.84-1.92a0.979,0.979,0,0,1,1.03-.71l4.38,0.01a2.68,2.68,0,0,1,.4.02,0.764,0.764,0,0,1,.71,1.17,10.877,10.877,0,0,1-1.75,3.02c-0.73,1.01-1.51,1.99-2.24,3.01a1.38,1.38,0,0,0,.22,2.21h0Zm0,0" transform="translate(-1749 -6120)"/>
</svg>
