<svg xmlns="http://www.w3.org/2000/svg" width="36.97" height="20.97" viewBox="0 0 36.97 20.97">
  <defs>
    <style>
      .cls-1 {
        fill: #436eab;
        fill-rule: evenodd;
      }
    </style>
  </defs>
  <path class="cls-1" d="M1099.84,1155.35a50.131,50.131,0,0,1,3.63,3.66,11.562,11.562,0,0,1,1.3,1.87,1.356,1.356,0,0,1-.82,2.1h-5.4a4.189,4.189,0,0,1-3.43-1.4c-0.74-.76-1.43-1.58-2.15-2.36a5,5,0,0,0-.97-0.87,1.129,1.129,0,0,0-1.8.44,5.762,5.762,0,0,0-.56,2.52c-0.06,1.27-.45,1.61-1.72,1.67a13.711,13.711,0,0,1-7.71-1.67,17,17,0,0,1-5.19-4.87,64.965,64.965,0,0,1-6.83-12.21c-0.43-.96-0.12-1.48.94-1.5q2.64-.045,5.28,0a1.542,1.542,0,0,1,1.46,1.1,32.789,32.789,0,0,0,3.58,6.65,5.641,5.641,0,0,0,1.35,1.49,0.818,0.818,0,0,0,1.39-.42,4.449,4.449,0,0,0,.31-1.39,21.055,21.055,0,0,0-.08-4.89,2.033,2.033,0,0,0-1.73-1.86c-0.52-.1-0.44-0.29-0.19-0.58a1.93,1.93,0,0,1,1.65-.83h6.09a1.457,1.457,0,0,1,1.31,1.59v6.79a1.993,1.993,0,0,0,.86,1.73,1.19,1.19,0,0,0,1.22-.6,20.925,20.925,0,0,0,3.43-5.28c0.41-.84.76-1.71,1.11-2.57a1.3,1.3,0,0,1,1.38-.95h5.86a3.037,3.037,0,0,1,.52.04,1.017,1.017,0,0,1,.95,1.56,14.724,14.724,0,0,1-2.33,4.05c-0.98,1.36-2.02,2.67-2.99,4.04-0.89,1.24-.82,1.87.28,2.95h0Z" transform="translate(-1068 -1142)"/>
</svg>
