<svg 
 xmlns="http://www.w3.org/2000/svg"
 xmlns:xlink="http://www.w3.org/1999/xlink"
 width="87px" height="109px">
<path fill-rule="evenodd"  fill="rgb(4, 149, 255)"
 d="M76.114,83.700 L76.114,67.207 C76.114,60.185 70.434,54.492 63.427,54.492 C56.421,54.492 50.741,60.185 50.741,67.207 L50.741,94.453 C50.741,100.472 45.873,105.352 39.867,105.352 C33.862,105.352 28.994,100.472 28.994,94.453 L28.994,65.391 C43.295,64.433 54.398,52.510 54.366,38.145 L54.366,10.898 C54.366,6.886 51.120,3.632 47.117,3.632 L47.117,1.816 C47.117,0.813 46.305,-0.000 45.304,-0.000 L39.867,-0.000 C36.865,-0.000 34.431,2.439 34.431,5.449 C34.431,8.459 36.865,10.898 39.867,10.898 L45.304,10.898 C46.305,10.898 47.117,10.085 47.117,9.082 L47.117,7.265 C49.118,7.265 50.741,8.892 50.741,10.898 L50.741,38.145 C50.741,51.186 40.193,61.758 27.181,61.758 C14.169,61.758 3.621,51.186 3.621,38.145 L3.621,10.898 C3.621,8.892 5.244,7.265 7.246,7.265 L7.246,9.082 C7.246,10.085 8.057,10.898 9.058,10.898 L14.495,10.898 C17.498,10.898 19.932,8.459 19.932,5.449 C19.932,2.439 17.498,-0.000 14.495,-0.000 L9.058,-0.000 C8.057,-0.000 7.246,0.813 7.246,1.816 L7.246,3.632 C3.242,3.632 -0.004,6.886 -0.004,10.898 L-0.004,38.145 C-0.036,52.510 11.067,64.433 25.369,65.391 L25.369,94.453 C25.369,102.478 31.860,108.985 39.867,108.985 C47.875,108.985 54.366,102.478 54.366,94.453 L54.366,67.207 C54.366,62.191 58.423,58.125 63.427,58.125 C68.432,58.125 72.489,62.191 72.489,67.207 L72.489,83.700 C65.555,84.703 60.744,91.151 61.745,98.101 C62.746,105.051 69.179,109.872 76.114,108.869 C83.048,107.866 87.858,101.418 86.858,94.468 C86.054,88.888 81.681,84.506 76.114,83.700 ZM43.492,7.265 L39.867,7.265 C38.866,7.265 38.055,6.452 38.055,5.449 C38.055,4.446 38.866,3.632 39.867,3.632 L43.492,3.632 L43.492,7.265 ZM10.870,3.632 L14.495,3.632 C15.496,3.632 16.307,4.446 16.307,5.449 C16.307,6.452 15.496,7.265 14.495,7.265 L10.870,7.265 L10.870,3.632 ZM76.114,96.270 C76.114,97.273 75.302,98.086 74.301,98.086 C73.300,98.086 72.489,97.273 72.489,96.270 C72.489,95.267 73.300,94.453 74.301,94.453 C75.302,94.453 76.114,95.267 76.114,96.270 ZM74.301,105.352 C69.297,105.357 65.236,101.295 65.231,96.279 C65.226,91.956 68.262,88.229 72.489,87.369 L72.489,91.147 C69.658,92.151 68.175,95.264 69.175,98.101 C70.176,100.939 73.283,102.426 76.114,101.423 C78.945,100.420 80.428,97.306 79.427,94.469 C78.880,92.917 77.662,91.696 76.114,91.147 L76.114,87.369 C81.018,88.367 84.187,93.162 83.191,98.077 C82.333,102.313 78.614,105.356 74.301,105.352 Z"/>
</svg>