<svg 
 xmlns="http://www.w3.org/2000/svg"
 xmlns:xlink="http://www.w3.org/1999/xlink"
 width="19px" height="16px">
<path fill-rule="evenodd"  fill="rgb(33, 77, 140)"
 d="M15.290,15.999 L2.767,15.999 C1.248,15.999 0.013,14.752 0.013,13.219 L0.013,11.448 C0.013,11.192 0.218,10.984 0.472,10.984 C0.725,10.984 0.931,11.192 0.931,11.448 L0.931,13.219 C0.931,14.241 1.755,15.072 2.767,15.072 L15.290,15.072 C16.302,15.072 17.126,14.241 17.126,13.219 L17.126,11.448 C17.126,11.192 17.332,10.984 17.585,10.984 C17.839,10.984 18.044,11.192 18.044,11.448 L18.044,13.219 C18.044,14.752 16.809,15.999 15.290,15.999 ZM14.798,13.737 L3.259,13.737 C3.005,13.737 2.800,13.530 2.800,13.274 C2.800,13.018 3.005,12.810 3.259,12.810 L14.798,12.810 C15.052,12.810 15.257,13.018 15.257,13.274 C15.257,13.530 15.052,13.737 14.798,13.737 ZM13.332,4.571 C13.223,4.571 13.114,4.532 13.026,4.453 L9.488,1.261 L9.488,10.244 C9.488,10.499 9.282,10.707 9.029,10.707 C8.775,10.707 8.570,10.499 8.570,10.244 L8.570,1.261 L5.031,4.453 C4.842,4.624 4.552,4.607 4.383,4.416 C4.214,4.225 4.230,3.932 4.419,3.762 L8.264,0.294 C8.700,-0.099 9.357,-0.099 9.793,0.294 L13.638,3.762 C13.827,3.932 13.843,4.225 13.674,4.416 C13.584,4.519 13.458,4.571 13.332,4.571 Z"/>
</svg>