<svg 
 xmlns="http://www.w3.org/2000/svg"
 xmlns:xlink="http://www.w3.org/1999/xlink"
 width="27px" height="24px">
<path fill-rule="evenodd"  fill="rgb(26, 25, 25)"
 d="M22.634,24.000 L4.779,24.000 C2.547,24.000 0.721,22.200 0.721,20.000 L0.721,5.600 C0.721,3.400 2.547,1.600 4.779,1.600 L8.025,1.600 L8.025,0.800 C8.025,0.300 8.330,-0.000 8.837,-0.000 C9.344,-0.000 9.648,0.300 9.648,0.800 L9.648,1.600 L17.765,1.600 L17.765,0.800 C17.765,0.300 18.069,-0.000 18.576,-0.000 C19.083,-0.000 19.388,0.300 19.388,0.800 L19.388,1.600 L22.634,1.600 C24.866,1.600 26.692,3.400 26.692,5.600 L26.692,20.000 C26.692,22.200 24.967,24.000 22.634,24.000 ZM25.069,5.600 C25.069,4.300 23.953,3.200 22.634,3.200 L19.388,3.200 L19.388,4.000 C19.388,4.500 19.083,4.800 18.576,4.800 C18.069,4.800 17.765,4.500 17.765,4.000 L17.765,3.200 L9.648,3.200 L9.648,4.000 C9.648,4.500 9.344,4.800 8.837,4.800 C8.330,4.800 8.025,4.500 8.025,4.000 L8.025,3.200 L4.779,3.200 C3.460,3.200 2.344,4.300 2.344,5.600 L2.344,8.000 L25.069,8.000 L25.069,5.600 ZM25.069,9.600 L2.344,9.600 L2.344,20.000 C2.344,21.300 3.460,22.400 4.779,22.400 L22.634,22.400 C23.953,22.400 25.069,21.300 25.069,20.000 L25.069,9.600 ZM21.011,20.000 C20.504,20.000 20.199,19.800 19.895,19.500 C19.591,19.200 19.388,18.700 19.388,18.400 C19.388,17.900 19.591,17.600 19.895,17.300 C20.504,16.700 21.518,16.700 22.127,17.300 C22.431,17.600 22.634,18.100 22.634,18.400 C22.634,18.700 22.431,19.200 22.127,19.500 C21.822,19.800 21.518,20.000 21.011,20.000 ZM21.011,15.200 C20.504,15.200 20.199,15.000 19.895,14.700 C19.591,14.400 19.388,13.900 19.388,13.600 C19.388,13.300 19.591,12.800 19.895,12.500 C20.504,11.900 21.518,11.900 22.127,12.500 C22.431,12.800 22.634,13.300 22.634,13.600 C22.634,14.100 22.431,14.400 22.127,14.700 C21.822,15.000 21.518,15.200 21.011,15.200 ZM16.141,20.000 C15.634,20.000 15.330,19.800 15.025,19.500 C14.721,19.200 14.518,18.700 14.518,18.400 C14.518,18.100 14.721,17.600 15.025,17.300 C15.634,16.700 16.649,16.700 17.257,17.300 C17.562,17.600 17.765,17.900 17.765,18.400 C17.765,18.900 17.562,19.200 17.257,19.500 C16.953,19.800 16.649,20.000 16.141,20.000 ZM16.141,15.200 C15.634,15.200 15.330,15.000 15.025,14.700 C14.721,14.400 14.518,13.900 14.518,13.600 C14.518,13.300 14.721,12.800 15.025,12.500 C15.634,11.900 16.649,11.900 17.257,12.500 C17.562,12.800 17.765,13.300 17.765,13.600 C17.765,14.100 17.562,14.400 17.257,14.700 C16.953,15.000 16.649,15.200 16.141,15.200 ZM11.272,20.000 C10.765,20.000 10.460,19.800 10.156,19.500 C9.852,19.200 9.648,18.700 9.648,18.400 C9.648,18.100 9.852,17.600 10.156,17.300 C10.765,16.700 11.779,16.700 12.388,17.300 C12.692,17.600 12.895,18.100 12.895,18.400 C12.895,18.700 12.692,19.200 12.388,19.500 C12.083,19.800 11.779,20.000 11.272,20.000 ZM11.272,15.200 C10.765,15.200 10.460,15.000 10.156,14.700 C9.852,14.400 9.648,13.900 9.648,13.600 C9.648,13.300 9.852,12.800 10.156,12.500 C10.765,11.900 11.779,11.900 12.388,12.500 C12.692,12.800 12.895,13.300 12.895,13.600 C12.895,13.900 12.692,14.400 12.388,14.700 C12.083,15.000 11.779,15.200 11.272,15.200 ZM6.402,20.000 C5.895,20.000 5.591,19.800 5.286,19.500 C4.982,19.200 4.779,18.700 4.779,18.400 C4.779,17.900 4.982,17.600 5.286,17.300 C5.895,16.700 6.910,16.700 7.518,17.300 C7.822,17.600 8.025,18.100 8.025,18.400 C8.025,18.700 7.822,19.200 7.518,19.500 C7.214,19.800 6.910,20.000 6.402,20.000 ZM6.402,15.200 C5.895,15.200 5.591,15.000 5.286,14.700 C4.982,14.400 4.779,14.100 4.779,13.600 C4.779,13.100 4.982,12.800 5.286,12.500 C5.895,11.900 6.910,11.900 7.518,12.500 C7.822,12.800 8.025,13.300 8.025,13.600 C8.025,13.900 7.822,14.400 7.518,14.700 C7.214,15.000 6.910,15.200 6.402,15.200 Z"/>
</svg>