<svg 
 xmlns="http://www.w3.org/2000/svg"
 xmlns:xlink="http://www.w3.org/1999/xlink"
 width="26px" height="25px">
<path fill-rule="evenodd"  fill="rgb(26, 25, 25)"
 d="M25.556,6.554 C25.457,6.554 25.258,6.554 25.159,6.554 C24.860,6.554 24.661,6.353 24.562,6.253 C23.469,4.348 21.878,2.744 19.989,1.742 C19.691,1.541 19.492,1.140 19.691,0.639 C19.889,0.338 20.287,0.138 20.784,0.338 C22.872,1.641 24.562,3.346 25.855,5.451 C26.053,5.752 26.053,6.253 25.556,6.554 ZM23.369,13.471 C23.369,16.663 21.985,19.486 19.788,21.389 L22.077,23.696 C22.375,23.997 22.375,24.499 22.077,24.799 C21.878,25.000 21.778,25.000 21.480,25.000 C21.182,25.000 20.983,25.000 20.884,24.799 L18.463,22.358 C16.888,23.330 15.034,23.897 13.030,23.897 C10.999,23.897 9.122,23.316 7.535,22.320 L5.076,24.799 C4.877,25.000 4.778,25.000 4.480,25.000 C4.182,25.000 3.983,25.000 3.883,24.799 C3.585,24.499 3.585,23.997 3.883,23.696 L6.219,21.341 C4.053,19.439 2.690,16.637 2.690,13.471 C2.690,7.656 7.263,3.045 13.030,3.045 C18.796,3.045 23.369,7.656 23.369,13.471 ZM13.030,4.649 C8.258,4.649 4.281,8.659 4.281,13.471 C4.281,18.283 8.258,22.293 13.030,22.293 C17.802,22.293 21.778,18.283 21.778,13.471 C21.778,8.659 17.802,4.649 13.030,4.649 ZM16.708,14.273 L14.620,14.273 C13.328,14.273 12.234,13.170 12.234,11.867 L12.234,8.960 C12.234,8.458 12.533,8.157 13.030,8.157 C13.527,8.157 13.825,8.458 13.825,8.960 L13.825,11.867 C13.825,12.368 14.123,12.669 14.620,12.669 L16.708,12.669 C17.205,12.669 17.503,12.970 17.503,13.471 C17.503,13.972 17.006,14.273 16.708,14.273 ZM5.971,1.541 C4.082,2.644 2.491,4.248 1.398,6.052 C1.398,6.453 1.099,6.554 0.901,6.554 C0.702,6.554 0.602,6.554 0.403,6.353 C0.105,6.153 -0.093,5.551 0.105,5.250 C1.398,3.145 3.088,1.441 5.176,0.138 C5.474,-0.063 5.971,-0.063 6.269,0.438 C6.468,0.739 6.468,1.240 5.971,1.541 Z"/>
</svg>