<svg 
 xmlns="http://www.w3.org/2000/svg"
 xmlns:xlink="http://www.w3.org/1999/xlink"
 width="21px" height="16px">
<path fill-rule="evenodd"  fill="rgb(52, 64, 81)"
 d="M19.150,15.999 C18.687,15.999 18.301,15.842 17.914,15.528 L15.906,13.802 L4.319,13.802 C2.002,13.802 -0.007,11.762 -0.007,9.409 L-0.007,4.388 C-0.007,2.035 2.002,-0.005 4.319,-0.005 L16.678,-0.005 C18.996,-0.005 21.004,2.035 21.004,4.388 L21.004,14.195 C21.004,15.136 20.154,15.999 19.150,15.999 ZM4.319,1.172 C2.620,1.172 1.229,2.584 1.229,4.310 L1.229,9.331 C1.229,11.057 2.620,12.469 4.319,12.469 L16.215,12.469 C16.369,12.469 16.447,12.469 16.601,12.625 L18.841,14.665 C19.228,15.057 19.845,14.822 19.845,14.195 L19.845,4.388 C19.845,2.662 18.455,1.251 16.756,1.251 C16.678,1.172 4.319,1.172 4.319,1.172 Z"/>
</svg>