<svg 
 xmlns="http://www.w3.org/2000/svg"
 xmlns:xlink="http://www.w3.org/1999/xlink"
 width="51px" height="64px">
<path fill-rule="evenodd"  fill="rgb(4, 149, 255)"
 d="M44.618,49.145 L44.618,39.461 C44.618,35.338 41.289,31.995 37.182,31.995 C33.075,31.995 29.745,35.338 29.745,39.461 L29.745,55.459 C29.745,58.993 26.891,61.858 23.371,61.858 C19.850,61.858 16.996,58.993 16.996,55.459 L16.996,38.394 C25.380,37.832 31.888,30.832 31.870,22.397 L31.870,6.399 C31.870,4.043 29.967,2.133 27.620,2.133 L27.620,1.066 C27.620,0.477 27.145,0.000 26.558,0.000 L23.371,0.000 C21.610,0.000 20.183,1.432 20.183,3.199 C20.183,4.967 21.610,6.399 23.371,6.399 L26.558,6.399 C27.145,6.399 27.620,5.921 27.620,5.332 L27.620,4.266 C28.794,4.266 29.745,5.221 29.745,6.399 L29.745,22.397 C29.745,30.054 23.561,36.261 15.934,36.261 C8.306,36.261 2.123,30.054 2.123,22.397 L2.123,6.399 C2.123,5.221 3.074,4.266 4.248,4.266 L4.248,5.332 C4.248,5.921 4.723,6.399 5.310,6.399 L8.497,6.399 C10.257,6.399 11.684,4.967 11.684,3.199 C11.684,1.432 10.257,0.000 8.497,0.000 L5.310,0.000 C4.723,0.000 4.248,0.477 4.248,1.066 L4.248,2.133 C1.900,2.133 -0.002,4.043 -0.002,6.399 L-0.002,22.397 C-0.021,30.832 6.488,37.832 14.871,38.394 L14.871,55.459 C14.871,60.171 18.677,63.991 23.371,63.991 C28.065,63.991 31.870,60.171 31.870,55.459 L31.870,39.461 C31.870,36.516 34.248,34.129 37.182,34.129 C40.115,34.129 42.494,36.516 42.494,39.461 L42.494,49.145 C38.429,49.734 35.609,53.520 36.196,57.600 C36.782,61.682 40.553,64.512 44.618,63.923 C48.684,63.334 51.503,59.548 50.917,55.468 C50.445,52.191 47.882,49.618 44.618,49.145 ZM25.495,4.266 L23.371,4.266 C22.784,4.266 22.308,3.788 22.308,3.199 C22.308,2.610 22.784,2.133 23.371,2.133 L25.495,2.133 L25.495,4.266 ZM6.372,2.133 L8.497,2.133 C9.084,2.133 9.559,2.610 9.559,3.199 C9.559,3.788 9.084,4.266 8.497,4.266 L6.372,4.266 L6.372,2.133 ZM44.618,56.525 C44.618,57.114 44.143,57.592 43.556,57.592 C42.969,57.592 42.494,57.114 42.494,56.525 C42.494,55.936 42.969,55.459 43.556,55.459 C44.143,55.459 44.618,55.936 44.618,56.525 ZM43.556,61.858 C40.622,61.861 38.242,59.476 38.239,56.531 C38.236,53.993 40.016,51.804 42.494,51.300 L42.494,53.518 C40.834,54.107 39.964,55.935 40.551,57.601 C41.138,59.267 42.959,60.140 44.618,59.551 C46.278,58.962 47.148,57.134 46.561,55.468 C46.240,54.557 45.526,53.840 44.618,53.518 L44.618,51.300 C47.493,51.885 49.351,54.700 48.767,57.587 C48.264,60.074 46.084,61.861 43.556,61.858 Z"/>
</svg>