<svg xmlns="http://www.w3.org/2000/svg" xmlns:xlink="http://www.w3.org/1999/xlink" version="1.1" id="Capa_1" x="0px" y="0px" viewBox="0 0 496 496" style="enable-background:new 0 0 496 496;" xml:space="preserve" width="512px" height="512px">
<g>
	<g>
		<g>
			<path d="M310.933,152c-26.472,0-48,21.528-48,48s21.528,48,48,48s48-21.528,48-48S337.405,152,310.933,152z M310.933,232     c-17.648,0-32-14.352-32-32s14.352-32,32-32s32,14.352,32,32S328.581,232,310.933,232z" fill="#eb2b63"/>
			<path d="M461.141,219.928L448.717,230c21.296,26.264,29.16,48.856,21.56,62c-7.712,13.368-31.744,17.768-65.904,12.088     c-7.568-1.256-15.496-3.088-23.584-5.232c3.696-16.568,6.472-34.664,8.176-53.88c6.832-4.792,13.52-9.664,19.904-14.68     l-9.888-12.576c-2.8,2.2-5.72,4.352-8.616,6.512c0.36-7.944,0.568-16.016,0.568-24.232c0-8.232-0.208-16.312-0.584-24.256     c3.928,2.936,7.816,5.88,11.576,8.888l10-12.496c-7.312-5.856-15.04-11.536-22.968-17.104     c-1.704-19.224-4.48-37.312-8.176-53.888c8.096-2.144,16.024-3.976,23.584-5.232c34.16-5.688,58.2-1.28,65.904,12.08     c7.584,13.144-0.264,35.728-21.552,61.984l12.424,10.08c26.08-32.152,34.24-60.576,22.992-80.056     c-11.4-19.752-40.672-26.792-82.392-19.864c-7.968,1.328-16.304,3.248-24.808,5.488C362.637,33.552,338.645,0,310.933,0     c-22.76,0-43.472,21.728-58.304,61.184l14.968,5.632C279.749,34.52,295.541,16,310.933,16c18.376,0,37.984,27.968,50.584,74.112     c-16.368,5.184-33.368,11.848-50.584,19.856c-7.016-3.256-14.024-6.392-21-9.224l-6.016,14.832c2.768,1.12,5.544,2.36,8.32,3.56     c-7.112,3.68-14.232,7.496-21.312,11.584c-7.096,4.096-13.968,8.36-20.72,12.688c0.56-4.776,1.152-9.536,1.856-14.2l-15.816-2.4     c-1.392,9.176-2.44,18.616-3.288,28.176c-15.584,10.928-29.88,22.336-42.576,33.952c-5.904-5.936-11.448-11.888-16.32-17.808     c-22.008-26.752-30.208-49.76-22.496-63.128c6.704-11.624,26.568-16.6,54.512-13.64l1.672-15.912     c-35.544-3.736-59.752,3.712-70.048,21.552c-11.408,19.752-2.88,48.624,23.992,81.296c5.128,6.224,10.944,12.472,17.128,18.704     c-6.256,6.304-12.136,12.624-17.312,18.92l12.368,10.152c4.912-5.984,10.52-12,16.488-18.008     c12.696,11.616,26.992,23.024,42.576,33.952c0.848,9.56,1.888,19,3.288,28.184l15.816-2.408c-0.704-4.664-1.296-9.424-1.864-14.2     c6.752,4.328,13.624,8.592,20.72,12.688c7.088,4.096,14.208,7.904,21.32,11.584c-2.776,1.192-5.56,2.44-8.328,3.56l6.016,14.832     c6.976-2.832,13.992-5.96,21-9.224c17.216,8.008,34.208,14.68,50.576,19.856C348.917,356.032,329.309,384,310.933,384     c-15.392,0-31.192-18.528-43.352-50.848l-14.968,5.632c14.84,39.472,35.552,61.216,58.32,61.216     c27.712,0,51.704-33.552,66.008-85.624c8.504,2.248,16.84,4.168,24.808,5.496c10.472,1.744,20.16,2.6,28.968,2.6     c26.32,0,44.88-7.672,53.424-22.472C495.389,280.52,487.229,252.08,461.141,219.928z M231.565,224.336     c-10.664-7.944-20.52-16.096-29.584-24.336c9.064-8.24,18.92-16.392,29.584-24.336c-0.376,8.04-0.632,16.136-0.632,24.336     S231.189,216.296,231.565,224.336z M365.349,105.664c2.576,11.712,4.744,24.28,6.344,37.768     c-6.768-4.344-13.656-8.616-20.752-12.712c-7.096-4.096-14.24-7.92-21.392-11.616     C341.733,113.84,353.701,109.392,365.349,105.664z M365.341,294.336c-11.64-3.72-23.616-8.176-35.8-13.432     c7.152-3.696,14.296-7.52,21.392-11.624c7.096-4.096,13.976-8.368,20.752-12.712     C370.093,270.056,367.917,282.624,365.341,294.336z M373.589,236.2c-9.832,6.672-20.056,13.104-30.656,19.224     c-10.624,6.136-21.336,11.768-32.04,16.952c-10.632-5.16-21.32-10.808-31.96-16.952c-10.656-6.152-20.912-12.592-30.704-19.232     c-0.864-11.84-1.296-23.928-1.296-36.192c0-12.264,0.432-24.352,1.296-36.192c9.792-6.64,20.048-13.08,30.704-19.232     c10.64-6.144,21.328-11.792,31.96-16.952c10.704,5.184,21.416,10.816,32.04,16.952c10.608,6.128,20.848,12.536,30.656,19.192     c0.848,11.608,1.344,23.672,1.344,36.232C374.933,212.544,374.437,224.6,373.589,236.2z" fill="#eb2b63"/>
			<path d="M162.373,301.36l-6.888,14.44c9.376,4.472,21.208,6.712,35.352,6.712c7.736,0,16.168-0.672,25.272-2.016l-2.344-15.832     C191.557,307.96,173.789,306.808,162.373,301.36z" fill="#eb2b63"/>
			<path d="M246.933,120c13.232,0,24-10.768,24-24s-10.768-24-24-24c-13.232,0-24,10.768-24,24S233.701,120,246.933,120z      M246.933,88c4.416,0,8,3.592,8,8s-3.584,8-8,8s-8-3.592-8-8S242.517,88,246.933,88z" fill="#eb2b63"/>
			<path d="M430.933,176c-13.232,0-24,10.768-24,24s10.768,24,24,24s24-10.768,24-24S444.165,176,430.933,176z M430.933,208     c-4.416,0-8-3.592-8-8s3.584-8,8-8c4.416,0,8,3.592,8,8S435.349,208,430.933,208z" fill="#eb2b63"/>
			<path d="M278.933,304c0-13.232-10.768-24-24-24c-13.232,0-24,10.768-24,24s10.768,24,24,24     C268.165,328,278.933,317.232,278.933,304z M246.933,304c0-4.416,3.584-8,8-8c4.416,0,8,3.584,8,8c0,4.416-3.584,8-8,8     C250.517,312,246.933,308.416,246.933,304z" fill="#eb2b63"/>
			<path d="M142.933,326.016V288h16v-48h-96v48h16v38.024L10.101,456.04c-2.072,3.904-3.168,8.312-3.168,12.744     C6.933,483.792,19.141,496,34.149,496h153.56c15.016,0,27.224-12.208,27.224-27.224c0-4.424-1.096-8.832-3.168-12.736     L142.933,326.016z M78.933,256h64v16h-64V256z M187.717,480H34.149c-6.184,0-11.216-5.032-11.216-11.216     c0-1.832,0.456-3.648,1.304-5.256l70.696-133.536V288h32v41.984l70.696,133.536c0.848,1.616,1.304,3.432,1.304,5.264     C198.933,474.968,193.901,480,187.717,480z" fill="#eb2b63"/>
			<rect x="50.61" y="447.206" transform="matrix(-0.908 -0.4189 0.4189 -0.908 -79.2013 894.6458)" width="16" height="17.623" fill="#eb2b63"/>
			<rect x="78.3" y="356.396" transform="matrix(-0.908 -0.4189 0.4189 -0.908 -1.2461 791.821)" width="16" height="79.302" fill="#eb2b63"/>
		</g>
	</g>
</g>
</svg>
