<svg 
 xmlns="http://www.w3.org/2000/svg"
 xmlns:xlink="http://www.w3.org/1999/xlink"
 width="54px" height="54px">
<path fill-rule="evenodd"  fill="rgb(4, 150, 255)"
 d="M53.433,19.391 L44.595,33.218 L44.595,51.136 L44.595,53.182 C44.595,53.673 44.268,54.000 43.777,54.000 L0.818,54.000 C0.327,54.000 -0.000,53.673 -0.000,53.182 L-0.000,0.818 C-0.000,0.327 0.327,-0.000 0.818,-0.000 L29.948,-0.000 C30.112,-0.000 30.357,0.082 30.521,0.327 L44.350,14.236 C44.513,14.400 44.595,14.645 44.595,14.809 L44.595,18.082 L46.641,14.891 C47.705,13.254 49.832,12.845 51.469,13.909 L52.451,14.564 C54.005,15.627 54.496,17.754 53.433,19.391 ZM30.767,2.782 L30.767,13.909 L41.813,13.909 L30.767,2.782 ZM42.959,15.627 L29.948,15.627 C29.457,15.627 29.130,15.300 29.130,14.809 L29.130,1.636 L1.636,1.636 L1.636,52.364 L42.959,52.364 C42.959,47.536 42.959,45.327 43.041,35.836 L42.304,36.900 C42.222,36.982 42.222,36.982 42.140,37.064 L33.549,44.345 C33.303,44.591 32.894,44.591 32.567,44.427 C32.321,44.264 32.158,43.854 32.239,43.527 L35.349,32.645 C35.349,32.564 35.349,32.482 35.431,32.400 L42.959,20.618 L42.959,15.627 ZM40.177,36.491 L36.576,34.118 L34.531,41.318 L40.177,36.491 ZM46.477,18.163 L37.231,32.564 L41.322,35.263 L50.569,20.863 L46.477,18.163 ZM51.469,15.873 L50.487,15.218 C49.668,14.727 48.441,14.973 47.950,15.791 L47.296,16.854 L51.387,19.555 L52.041,18.491 C52.614,17.673 52.369,16.445 51.469,15.873 ZM16.365,32.973 C9.819,32.973 4.418,27.573 4.418,20.945 C4.418,14.318 9.737,8.918 16.365,8.918 C22.911,8.918 28.312,14.318 28.312,20.945 C28.312,27.573 22.911,32.973 16.365,32.973 ZM16.365,10.636 C10.719,10.636 6.055,15.300 6.055,21.027 C6.055,26.754 10.637,31.418 16.365,31.418 C22.011,31.418 26.675,26.754 26.675,21.027 C26.675,15.300 22.011,10.636 16.365,10.636 ZM22.175,28.145 L10.555,28.145 C10.064,28.145 9.737,27.818 9.737,27.327 L9.737,25.772 C9.737,23.236 11.783,21.109 14.401,21.109 L18.329,21.109 C20.865,21.109 22.993,23.236 22.993,25.772 L22.993,27.327 C22.993,27.818 22.666,28.145 22.175,28.145 ZM21.357,25.772 C21.357,24.136 19.965,22.745 18.329,22.745 L14.401,22.745 C12.765,22.745 11.374,24.136 11.374,25.772 L11.374,26.509 L21.357,26.509 L21.357,25.772 ZM16.365,20.373 C14.074,20.373 12.274,18.491 12.274,16.282 C12.274,13.991 14.074,12.191 16.365,12.191 C18.656,12.191 20.456,13.991 20.456,16.282 C20.456,18.573 18.574,20.373 16.365,20.373 ZM16.365,13.827 C14.974,13.827 13.910,14.891 13.910,16.282 C13.910,17.673 14.974,18.736 16.365,18.736 C17.756,18.736 18.820,17.673 18.820,16.282 C18.820,14.891 17.674,13.827 16.365,13.827 ZM7.364,39.027 L25.284,39.027 C25.693,39.027 26.021,39.354 26.021,39.845 C26.021,40.336 25.693,40.664 25.202,40.664 L7.364,40.664 C6.873,40.664 6.546,40.336 6.546,39.845 C6.546,39.354 6.873,39.027 7.364,39.027 ZM7.364,45.164 L25.284,45.164 C25.693,45.164 26.021,45.491 26.021,45.982 C26.021,46.472 25.693,46.800 25.202,46.800 L7.364,46.800 C6.873,46.800 6.546,46.472 6.546,45.982 C6.546,45.491 6.873,45.164 7.364,45.164 Z"/>
</svg>