<svg xmlns="http://www.w3.org/2000/svg" width="72" height="58" viewBox="0 0 72 58">
  <defs>
    <style>
      .cls-1 {
        fill: #5467f6;
        fill-rule: evenodd;
      }
    </style>
  </defs>
  <path class="cls-1" d="M1516,3450.96a13.259,13.259,0,0,1-13.15-12.08H1480v-2.42h25.2v1.21a10.8,10.8,0,1,0,21.6,0v-1.21H1552v2.42h-22.85A13.259,13.259,0,0,1,1516,3450.96Zm0-4.83a8.444,8.444,0,0,1-8.4-8.46v-0.15a15.93,15.93,0,0,1,.44-3.7c2.14-10.53,13.6-33.2,14.09-34.16a1.2,1.2,0,0,1,1.61-.53,1.214,1.214,0,0,1,.64,1.3c-0.04.19-3.38,18.47-1.37,28.62a64.477,64.477,0,0,1,1.39,8.62A8.444,8.444,0,0,1,1516,3446.13Zm4.86-38.38c-3.65,7.7-9.12,19.88-10.47,26.55a13.89,13.89,0,0,0-.39,3.21v0.16a6,6,0,1,0,12,0,60.591,60.591,0,0,0-1.34-8.14c-1.26-6.34-.58-15.37.2-21.78h0ZM1498,3448.54a3.625,3.625,0,1,1,3.6-3.62A3.608,3.608,0,0,1,1498,3448.54Zm0-4.83a1.21,1.21,0,1,0,1.2,1.21A1.206,1.206,0,0,0,1498,3443.71Zm-10.8,9.67a4.835,4.835,0,1,1,4.8-4.84A4.823,4.823,0,0,1,1487.2,3453.38Zm0-7.25a2.415,2.415,0,1,0,2.4,2.41A2.4,2.4,0,0,0,1487.2,3446.13Zm57.6,7.25a4.835,4.835,0,1,1,4.8-4.84A4.823,4.823,0,0,1,1544.8,3453.38Zm0-7.25a2.415,2.415,0,1,0,2.4,2.41A2.4,2.4,0,0,0,1544.8,3446.13Zm-10.8,2.41a3.625,3.625,0,1,1,3.6-3.62A3.608,3.608,0,0,1,1534,3448.54Zm0-4.83a1.21,1.21,0,1,0,1.2,1.21A1.206,1.206,0,0,0,1534,3443.71ZM1505.2,3457a3.625,3.625,0,1,1,3.6-3.62A3.608,3.608,0,0,1,1505.2,3457Zm0-4.83a1.205,1.205,0,1,0,1.2,1.21A1.206,1.206,0,0,0,1505.2,3452.17Zm21.6,4.83a3.625,3.625,0,1,1,3.6-3.62A3.608,3.608,0,0,1,1526.8,3457Zm0-4.83a1.205,1.205,0,1,0,1.2,1.21A1.206,1.206,0,0,0,1526.8,3452.17Z" transform="translate(-1480 -3399)"/>
</svg>
