<svg 
 xmlns="http://www.w3.org/2000/svg"
 xmlns:xlink="http://www.w3.org/1999/xlink"
 width="25px" height="20px">
<path fill-rule="evenodd"  fill="rgb(253, 196, 1)"
 d="M12.531,19.997 C12.330,19.997 12.230,19.997 12.029,19.997 C10.622,19.698 5.396,18.105 1.376,11.834 C-0.534,8.947 -0.434,5.164 1.878,2.576 C3.285,0.983 5.396,-0.013 7.506,-0.013 C9.315,-0.013 11.024,0.585 12.531,1.780 C13.938,0.684 15.546,-0.013 17.556,-0.013 C19.767,-0.013 21.777,0.983 23.184,2.576 C25.395,4.965 25.597,8.748 23.687,11.834 C19.667,18.006 14.541,19.599 13.034,19.997 C12.933,19.798 12.732,19.997 12.531,19.997 ZM12.431,18.404 L12.632,18.404 "/>
</svg>