<svg xmlns="http://www.w3.org/2000/svg" width="78" height="57" viewBox="0 0 78 57">
  <defs>
    <style>
      .cls-1 {
        fill: #ffc33e;
        fill-rule: evenodd;
      }
    </style>
  </defs>
  <path class="cls-1" d="M802.665,3436.31h-6.6c2.744-6.22,2.448-11.25,1.41-14.65-1.78-6.07-7.786-12.66-16.683-12.66a20.833,20.833,0,0,0-7.191,1.33,36.97,36.97,0,0,0-8.3,4.15,35.363,35.363,0,0,0-8.3-4.15A21.17,21.17,0,0,0,749.8,3409c-8.9,0-14.9,6.59-16.682,12.66-1.039,3.62-1.409,9.1,2.076,15.99h-8.007a1.18,1.18,0,1,0,0,2.36H736.6a14.892,14.892,0,0,0,1.334,2c7.711,11.11,24.468,23.17,27.507,23.91V3466a0.223,0.223,0,0,0,.149-0.08h0.222v-0.07c2.595-1.26,18.684-11.62,27.137-23.91a27.268,27.268,0,0,0,2.076-3.33h7.785a1.173,1.173,0,0,0,1.187-1.19,1.249,1.249,0,0,0-1.335-1.11h0Zm-11.863,4.37c-7.859,11.47-22.318,20.73-25.431,22.73-3.189-2-17.573-11.33-25.506-22.73l-0.444-.67h10.9a1.227,1.227,0,0,0,1.113-.66l4.967-9.77,7.785,19.91a1.221,1.221,0,0,0,1.113.74h0.074a1.179,1.179,0,0,0,1.111-.89l6.822-23.32,3.633,11.77a1.213,1.213,0,0,0,.964.82,1.3,1.3,0,0,0,1.186-.52l2.892-4.22,2.446,4.15a1.183,1.183,0,0,0,1.039.59h6.673c-0.445.74-.89,1.4-1.335,2.07h0Zm2.669-4.37h-7.266l-3.04-5.18a1.182,1.182,0,0,0-1.039-.59,1.123,1.123,0,0,0-1.037.52l-2.521,3.7-4.078-13.25a1.368,1.368,0,0,0-1.186-.89,1.27,1.27,0,0,0-1.187.89l-6.895,23.76-7.488-19.1a1.122,1.122,0,0,0-1.038-.74,1.145,1.145,0,0,0-1.113.67l-5.857,11.47H737.937c-2.966-5.4-3.781-10.59-2.446-15.25a15.147,15.147,0,0,1,14.383-10.88,19.753,19.753,0,0,1,6.377,1.18,35.969,35.969,0,0,1,8.378,4.3,1.129,1.129,0,0,0,1.483,0,32.27,32.27,0,0,1,8.378-4.3,18.036,18.036,0,0,1,6.377-1.18,15.22,15.22,0,0,1,14.383,10.88c1.261,4.3.594,9.03-1.779,13.99h0Zm0,0" transform="translate(-726 -3409)"/>
</svg>
