<svg 
 xmlns="http://www.w3.org/2000/svg"
 xmlns:xlink="http://www.w3.org/1999/xlink"
 width="25px" height="20px">
<path fill-rule="evenodd"  fill="rgb(253, 196, 1)"
 d="M13.000,20.982 C12.800,20.982 12.700,20.982 12.500,20.982 C11.100,20.684 5.900,19.091 1.900,12.819 C-0.000,9.932 0.100,6.150 2.400,3.561 C3.800,1.969 5.900,0.973 8.000,0.973 C9.800,0.973 11.500,1.570 13.000,2.765 C14.400,1.670 16.000,0.973 18.000,0.973 C20.200,0.973 22.200,1.969 23.600,3.561 C25.800,5.950 26.000,9.733 24.100,12.819 C20.100,18.991 15.000,20.584 13.500,20.982 C13.400,20.783 13.200,20.982 13.000,20.982 ZM8.100,2.466 C6.300,2.466 4.700,3.263 3.600,4.557 C1.800,6.448 1.700,9.534 3.300,11.923 C7.000,17.697 11.600,19.091 12.900,19.389 L13.100,19.389 L13.300,19.389 C14.600,19.091 19.200,17.598 22.900,11.923 C24.300,9.534 24.300,6.548 22.600,4.557 C21.500,3.263 19.900,2.466 18.100,2.466 C16.500,2.466 15.100,3.064 13.900,4.258 L13.700,4.457 C13.400,4.756 12.900,4.756 12.600,4.457 L12.400,4.258 C11.300,3.163 9.700,2.466 8.100,2.466 Z"/>
</svg>