<svg xmlns="http://www.w3.org/2000/svg" width="71" height="71" viewBox="0 0 71 71" fill='#0495ff'>
  <path class="cls-1" d="M342.521,2261.23h-4.438a1.478,1.478,0,0,0-1.479,1.48v7.39a1.478,1.478,0,0,0,1.479,1.48h2.958v4.44a8.875,8.875,0,1,1-17.75,0v-4.44h2.959a1.478,1.478,0,0,0,1.479-1.48v-7.39a1.478,1.478,0,0,0-1.479-1.48h-4.438a1.478,1.478,0,0,0-1.479,1.48v13.31a11.855,11.855,0,0,0,10.354,11.74v9.71a12.586,12.586,0,0,1-12.573,12.57H307.021a1.479,1.479,0,0,1-1.48-1.48v-3.07a10.32,10.32,0,1,0-2.958.01v3.06a4.44,4.44,0,0,0,4.438,4.44h11.093a15.551,15.551,0,0,0,15.532-15.53v-9.71A11.855,11.855,0,0,0,344,2276.02v-13.31A1.478,1.478,0,0,0,342.521,2261.23Zm-19.229,2.96h1.479v4.43h-1.479v-4.43Zm-26.625,31.06a7.4,7.4,0,1,1,7.4,7.39A7.4,7.4,0,0,1,296.667,2295.25Zm44.375-26.63h-1.48v-4.43h1.48v4.43ZM308.5,2295.25a4.438,4.438,0,1,0-4.438,4.44A4.44,4.44,0,0,0,308.5,2295.25Zm-5.917,0a1.48,1.48,0,1,1,1.479,1.48A1.478,1.478,0,0,1,302.583,2295.25Zm17.75,4.44a4.44,4.44,0,0,0,4.438-4.44v-7.4h-2.959v7.4a1.478,1.478,0,0,1-1.479,1.48h-2.958v2.96h2.958Zm-26.625-20.71a1.478,1.478,0,0,0,1.479,1.48H301.1a1.478,1.478,0,0,0,1.479-1.48v-2.96h2.959a1.478,1.478,0,0,0,1.479-1.48v-5.92a1.484,1.484,0,0,0-1.479-1.48h-2.959v-2.95a1.478,1.478,0,0,0-1.479-1.48h-5.917a1.478,1.478,0,0,0-1.479,1.48v2.95H290.75a1.484,1.484,0,0,0-1.479,1.48v5.92a1.478,1.478,0,0,0,1.479,1.48h2.958v2.96h0Zm-1.479-5.92v-2.96h2.958a1.479,1.479,0,0,0,1.48-1.48v-2.95h2.958v2.95a1.478,1.478,0,0,0,1.479,1.48h2.958v2.96H301.1a1.478,1.478,0,0,0-1.479,1.48v2.96h-2.958v-2.96a1.479,1.479,0,0,0-1.48-1.48h-2.958Zm-16.271,11.92v-29.67a1.478,1.478,0,0,1,1.479-1.48h42.9a1.478,1.478,0,0,1,1.479,1.48v2.96h2.959v-2.96a4.44,4.44,0,0,0-4.438-4.44h-11.94a10.354,10.354,0,0,0-20.495,0H277.437a4.44,4.44,0,0,0-4.437,4.44v39.94a4.44,4.44,0,0,0,4.437,4.44H290.75v-2.96h-3.042A13.331,13.331,0,0,0,275.958,2284.98Zm22.188-40.02a7.4,7.4,0,0,1,7.247,5.91H290.9A7.4,7.4,0,0,1,298.146,2244.96Zm-22.188,50.29v-7.29a10.372,10.372,0,0,1,8.767,8.77h-7.288A1.478,1.478,0,0,1,275.958,2295.25Zm8.875-38.46h2.958v2.96h-2.958v-2.96Zm-5.916,0h2.958v2.96h-2.958v-2.96Zm0,5.92h2.958v2.96h-2.958v-2.96Z" transform="translate(-273 -2242)"/>
</svg>
