<svg 
 xmlns="http://www.w3.org/2000/svg"
 xmlns:xlink="http://www.w3.org/1999/xlink"
 width="315px" height="238px">
<path fill-rule="evenodd"  opacity="0.161" fill="rgb(255, 255, 255)"
 d="M296.505,208.510 L282.316,208.510 L282.316,234.561 C282.316,237.206 280.080,238.858 278.292,237.536 L239.035,208.510 L157.875,208.510 C147.709,208.510 139.390,200.245 139.390,190.145 L139.390,174.456 L157.122,174.456 C167.289,174.456 175.607,166.192 175.607,156.091 L175.607,122.245 L228.161,122.245 L228.161,86.263 L175.607,86.263 L175.607,34.051 L296.505,34.051 C306.673,34.051 314.991,42.315 314.991,52.416 L314.991,190.145 C314.991,200.245 306.673,208.510 296.505,208.510 ZM139.390,52.416 L139.390,86.263 L86.836,86.263 L86.836,122.245 L139.390,122.245 L139.390,174.456 L75.962,174.456 L36.705,203.483 C34.917,204.805 32.682,203.153 32.682,200.508 L32.682,174.456 L18.492,174.456 C8.325,174.456 0.007,166.192 0.007,156.091 L0.007,18.363 C0.007,8.262 8.325,-0.002 18.492,-0.002 L157.122,-0.002 C167.289,-0.002 175.607,8.262 175.607,18.363 L175.607,34.051 L157.875,34.051 C147.709,34.051 139.390,42.315 139.390,52.416 Z"/>
</svg>