<svg xmlns="http://www.w3.org/2000/svg" width="504" height="381" viewBox="0 0 504 381">
  <defs>
    <style>
      .cls-1 {
        fill: #fff;
        fill-rule: evenodd;
        opacity: 0.16;
      }
    </style>
  </defs>
  <path class="cls-1" d="M1719.41,4121.51H1525.97v83.58h84.09v57.6h-84.09v54.19a29.574,29.574,0,0,1-29.57,29.4h-28.38v25.11a29.576,29.576,0,0,0,29.58,29.4h129.86l62.81,46.47c2.86,2.11,6.44-.53,6.44-4.76v-41.71h22.7a29.576,29.576,0,0,0,29.58-29.4V4150.91A29.576,29.576,0,0,0,1719.41,4121.51Zm-335.47,141.18v-57.6h84.08v-54.18a29.576,29.576,0,0,1,29.58-29.4h28.37V4096.4a29.574,29.574,0,0,0-29.57-29.4H1274.59a29.576,29.576,0,0,0-29.58,29.4v220.48a29.576,29.576,0,0,0,29.58,29.4h22.7v41.7c0,4.24,3.58,6.88,6.44,4.76l62.81-46.46h101.48v-83.59h-84.08Z" transform="translate(-1245 -4067)"/>
</svg>
