<svg xmlns="http://www.w3.org/2000/svg" width="72" height="65" viewBox="0 0 72 65">
  <defs>
    <style>
      .cls-1 {
        fill: #75bf43;
        fill-rule: evenodd;
      }
    </style>
  </defs>
  <path class="cls-1" d="M1546.2,3087.73a4.8,4.8,0,0,0-4.64,3.66h-10.63l-7.14-12.47,5.13-9.29c0.16,0.01.32,0.01,0.48,0.01a4.82,4.82,0,1,0-4.8-4.83,4.9,4.9,0,0,0,2.05,3.99l-5.16,9.35h-12.98l-5.16-9.35a4.837,4.837,0,0,0-2.75-8.79,4.81,4.81,0,0,0,0,9.62,3.866,3.866,0,0,0,.48-0.03l5.13,9.32-7.15,12.47h-10.62a4.795,4.795,0,1,0-4.64,5.98,4.736,4.736,0,0,0,4.64-3.57h10.62l7.15,12.37-5.13,9.24c-0.16-.01-0.32-0.03-0.48-0.03a4.81,4.81,0,1,0,4.8,4.8,4.712,4.712,0,0,0-2.05-3.89l5.16-9.25h14.11a0.374,0.374,0,0,0,.07-0.06l5.16,9.29a4.764,4.764,0,1,0,2.75-.9,3.854,3.854,0,0,0-.48.02l-5.67-10.24c-0.02-.03-0.04,0-0.06-0.03l6.54-11.32h10.63a4.727,4.727,0,0,0,4.64,3.56A4.815,4.815,0,0,0,1546.2,3087.73Zm-16.8-25.33a2.41,2.41,0,1,1-2.4,2.41A2.409,2.409,0,0,1,1529.4,3062.4Zm-28.8,4.82a2.41,2.41,0,1,1,2.4-2.41A2.409,2.409,0,0,1,1500.6,3067.22Zm-16.8,27.68a2.405,2.405,0,1,1,2.4-2.4A2.407,2.407,0,0,1,1483.8,3094.9Zm16.8,27.69a2.41,2.41,0,1,1,2.4-2.41A2.409,2.409,0,0,1,1500.6,3122.59Zm30-4.82a2.41,2.41,0,1,1-2.4,2.41A2.409,2.409,0,0,1,1530.6,3117.77Zm-8.67-13.14h-13.86l-6.93-12.04,6.93-12.03h13.86l6.93,12.03Zm24.27-9.73a2.405,2.405,0,1,1,2.4-2.4A2.407,2.407,0,0,1,1546.2,3094.9Z" transform="translate(-1479 -3060)"/>
</svg>
