<svg 
 xmlns="http://www.w3.org/2000/svg"
 xmlns:xlink="http://www.w3.org/1999/xlink"
 width="67px" height="68px">
<path fill-rule="evenodd"  fill="rgb(255, 255, 255)"
 d="M62.504,27.034 C59.404,30.146 55.975,31.438 52.345,32.807 C51.237,33.224 50.119,33.646 48.986,34.126 C52.873,39.147 55.811,44.215 57.328,48.538 C59.177,53.808 58.920,57.834 56.584,60.179 C55.282,61.486 53.456,62.149 51.156,62.150 C51.155,62.150 51.155,62.150 51.154,62.150 C47.260,62.150 42.200,60.231 36.771,56.864 C35.855,58.711 34.651,60.391 33.177,61.871 C29.565,65.498 24.762,67.496 19.653,67.496 C14.544,67.496 9.740,65.498 6.128,61.871 C2.515,58.243 0.526,53.420 0.526,48.289 C0.526,43.159 2.515,38.336 6.128,34.708 C7.603,33.227 9.277,32.016 11.120,31.096 C10.013,29.293 9.056,27.518 8.268,25.799 C5.222,19.151 5.060,13.967 7.813,11.204 C9.114,9.897 10.940,9.234 13.240,9.234 C18.444,9.234 26.027,12.798 33.758,18.833 C34.235,17.695 34.656,16.573 35.071,15.461 C36.434,11.815 37.721,8.372 40.820,5.259 C43.716,2.351 47.567,0.749 51.662,0.749 C55.758,0.749 59.608,2.351 62.504,5.259 C65.400,8.168 66.995,12.034 66.995,16.146 C66.995,20.260 65.400,24.126 62.504,27.034 ZM8.087,36.674 C4.997,39.777 3.295,43.902 3.295,48.289 C3.295,52.677 4.997,56.802 8.086,59.904 C11.176,63.006 15.284,64.715 19.653,64.715 C24.022,64.715 28.129,63.006 31.219,59.904 C32.555,58.562 33.632,57.029 34.431,55.338 C33.667,54.816 32.899,54.268 32.128,53.695 C31.452,55.274 30.490,56.703 29.261,57.938 C26.612,60.598 23.132,61.928 19.653,61.928 C16.173,61.928 12.694,60.598 10.044,57.938 C4.747,52.618 4.747,43.961 10.044,38.641 C11.274,37.407 12.696,36.438 14.272,35.758 C13.704,34.986 13.159,34.215 12.639,33.447 C10.952,34.250 9.423,35.332 8.087,36.674 ZM29.833,51.920 C27.394,49.961 24.949,47.764 22.562,45.368 C20.199,42.995 18.014,40.545 16.054,38.083 C15.841,38.137 15.624,38.202 15.442,38.279 C14.160,38.820 13.003,39.604 12.003,40.608 C7.785,44.843 7.785,51.736 12.003,55.972 C14.111,58.089 16.883,59.148 19.653,59.148 C22.423,59.148 25.193,58.089 27.302,55.972 C28.339,54.930 29.139,53.720 29.681,52.372 C29.704,52.304 29.763,52.128 29.833,51.920 ZM13.240,12.015 C11.702,12.015 10.535,12.404 9.771,13.171 C7.926,15.024 8.295,19.203 10.784,24.637 C11.704,26.645 12.872,28.736 14.251,30.863 C14.292,30.918 14.330,30.975 14.364,31.036 C15.355,32.554 16.454,34.089 17.647,35.624 C17.690,35.673 17.730,35.723 17.766,35.778 C19.774,38.347 22.045,40.915 24.521,43.401 C28.545,47.443 32.783,50.922 36.819,53.592 C36.886,53.629 36.949,53.670 37.008,53.716 C42.439,57.281 47.493,59.368 51.154,59.368 C51.155,59.368 51.155,59.368 51.156,59.368 C52.695,59.368 53.862,58.979 54.626,58.213 C56.132,56.700 56.165,53.592 54.716,49.462 C53.245,45.271 50.311,40.285 46.410,35.332 C43.553,36.812 41.090,38.633 38.728,41.005 C38.696,41.037 38.663,41.067 38.628,41.095 C38.623,41.099 38.618,41.103 38.613,41.107 C38.584,41.131 38.554,41.153 38.523,41.174 C38.515,41.179 38.508,41.184 38.500,41.189 C38.470,41.208 38.440,41.226 38.408,41.243 C38.401,41.247 38.394,41.251 38.387,41.255 C38.351,41.274 38.315,41.291 38.278,41.306 C38.276,41.307 38.274,41.308 38.272,41.309 C38.189,41.343 38.104,41.368 38.018,41.385 C38.016,41.385 38.013,41.386 38.011,41.386 C37.971,41.394 37.931,41.400 37.891,41.404 C37.885,41.405 37.879,41.405 37.873,41.406 C37.835,41.409 37.797,41.411 37.759,41.411 C37.756,41.411 37.752,41.412 37.749,41.412 C37.747,41.412 37.746,41.411 37.744,41.411 C37.687,41.411 37.630,41.408 37.573,41.400 C37.571,41.400 37.569,41.400 37.568,41.399 C37.511,41.392 37.454,41.381 37.398,41.366 C37.397,41.365 37.396,41.365 37.394,41.365 C37.339,41.350 37.285,41.332 37.231,41.310 C37.225,41.308 37.220,41.305 37.214,41.303 C37.161,41.280 37.108,41.255 37.057,41.226 C34.426,39.700 31.894,37.559 29.788,35.133 C28.599,33.764 27.545,32.305 26.688,30.813 C26.551,30.574 26.491,30.308 26.504,30.047 C26.521,29.712 26.659,29.385 26.908,29.134 C27.059,28.982 27.206,28.832 27.351,28.681 C27.423,28.606 27.494,28.530 27.565,28.455 C27.635,28.381 27.705,28.307 27.773,28.234 C29.719,26.136 31.267,23.930 32.557,21.421 C25.223,15.599 17.888,12.015 13.240,12.015 ZM60.545,7.226 C58.172,4.843 55.018,3.531 51.662,3.531 C48.306,3.531 45.152,4.843 42.779,7.226 C40.103,9.913 38.973,12.937 37.664,16.438 C36.488,19.587 35.197,23.038 32.584,26.714 C32.560,26.748 32.535,26.782 32.511,26.816 C32.423,26.940 32.333,27.064 32.241,27.188 C32.193,27.252 32.146,27.317 32.097,27.381 C32.029,27.472 31.960,27.563 31.891,27.653 C31.827,27.736 31.763,27.819 31.699,27.901 C31.645,27.972 31.589,28.042 31.533,28.112 C31.456,28.209 31.380,28.305 31.301,28.401 C31.257,28.456 31.212,28.510 31.167,28.564 C31.078,28.673 30.989,28.782 30.897,28.889 C30.864,28.929 30.829,28.969 30.796,29.008 C30.693,29.129 30.590,29.250 30.485,29.370 C30.465,29.392 30.445,29.415 30.425,29.437 C30.166,29.732 29.901,30.024 29.627,30.314 C29.787,30.565 29.955,30.813 30.126,31.061 C30.969,32.277 31.943,33.450 33.007,34.538 C34.401,35.961 35.947,37.239 37.553,38.273 C37.713,38.122 37.873,37.974 38.031,37.828 C38.110,37.757 38.188,37.688 38.267,37.617 C38.347,37.545 38.427,37.472 38.507,37.401 C38.597,37.322 38.687,37.245 38.777,37.167 C38.847,37.107 38.917,37.045 38.987,36.986 C39.074,36.912 39.162,36.839 39.249,36.767 C39.325,36.704 39.400,36.641 39.475,36.579 C39.555,36.514 39.635,36.450 39.715,36.385 C39.802,36.316 39.889,36.246 39.975,36.178 C40.044,36.124 40.113,36.071 40.182,36.017 C40.287,35.936 40.392,35.856 40.497,35.776 C40.548,35.738 40.600,35.699 40.652,35.660 C40.791,35.557 40.930,35.455 41.068,35.355 C41.088,35.341 41.107,35.327 41.127,35.313 C44.793,32.683 48.233,31.386 51.372,30.203 C54.858,28.888 57.870,27.753 60.545,25.067 C62.918,22.684 64.225,19.516 64.225,16.146 C64.225,12.777 62.918,9.609 60.545,7.226 ZM55.160,10.027 C52.418,8.443 48.937,8.908 46.695,11.159 C46.581,11.274 46.468,11.393 46.360,11.513 C46.087,11.815 45.711,11.969 45.334,11.969 C45.002,11.969 44.669,11.849 44.404,11.607 C43.837,11.091 43.795,10.211 44.309,9.643 C44.446,9.491 44.590,9.340 44.736,9.193 C47.862,6.054 52.716,5.406 56.541,7.617 C57.204,8.000 57.432,8.850 57.051,9.516 C56.669,10.181 55.823,10.411 55.160,10.027 ZM44.445,14.456 C44.442,14.461 44.440,14.466 44.439,14.469 C44.196,14.956 43.707,15.238 43.199,15.238 C42.991,15.238 42.780,15.191 42.581,15.091 C41.897,14.747 41.619,13.912 41.961,13.225 C41.969,13.209 41.982,13.183 41.994,13.162 C42.359,12.487 43.200,12.237 43.872,12.604 C44.533,12.964 44.784,13.787 44.445,14.456 ZM41.646,50.071 C42.485,50.574 43.321,51.042 44.132,51.461 C44.760,51.786 46.399,52.557 48.110,53.152 C48.832,53.404 49.215,54.196 48.965,54.922 C48.766,55.497 48.230,55.858 47.656,55.858 C47.506,55.858 47.353,55.832 47.203,55.780 C45.345,55.134 43.553,54.290 42.864,53.934 C42.002,53.488 41.114,52.992 40.225,52.458 C39.568,52.064 39.355,51.210 39.747,50.551 C40.139,49.892 40.990,49.677 41.646,50.071 ZM51.318,53.836 C51.328,53.834 51.339,53.832 51.349,53.830 C52.099,53.682 52.827,54.175 52.973,54.928 C53.120,55.682 52.630,56.412 51.880,56.560 C51.820,56.572 51.758,56.582 51.696,56.591 C51.632,56.599 51.568,56.604 51.505,56.604 C50.824,56.604 50.230,56.099 50.135,55.403 C50.031,54.642 50.560,53.941 51.318,53.836 Z"/>
</svg>