<svg 
 xmlns="http://www.w3.org/2000/svg"
 xmlns:xlink="http://www.w3.org/1999/xlink"
 width="20px" height="20px">
<path fill-rule="evenodd"  fill="rgb(52, 64, 81)"
 d="M14.274,19.995 L14.274,19.995 C13.234,19.995 12.119,19.628 11.301,19.040 C8.774,17.277 7.138,15.734 5.726,14.339 C4.314,12.943 2.753,11.253 0.969,8.829 C-0.815,6.478 -0.072,3.393 2.604,0.602 C3.422,-0.206 4.834,-0.206 5.726,0.602 L7.361,2.218 C7.733,2.585 7.956,3.173 7.956,3.760 C7.956,4.348 7.733,4.936 7.361,5.303 L6.618,6.038 C6.395,6.258 6.469,6.625 6.618,6.845 C7.436,7.874 8.848,9.417 9.740,10.151 C10.558,10.959 11.970,12.355 13.085,13.237 C13.308,13.457 13.680,13.457 13.903,13.237 L14.646,12.502 C15.464,11.694 16.876,11.694 17.768,12.502 L19.403,14.118 C19.775,14.485 19.998,15.073 19.998,15.661 C19.998,16.248 19.775,16.836 19.403,17.203 C17.842,19.040 16.058,19.995 14.274,19.995 ZM4.165,1.189 C3.942,1.189 3.719,1.336 3.422,1.410 C1.043,3.760 0.597,6.258 1.861,8.094 C3.645,10.592 5.057,12.061 6.469,13.530 C7.882,14.926 9.443,16.322 11.970,18.085 C13.903,19.407 16.356,18.893 18.734,16.542 C18.957,16.322 18.957,16.102 18.957,15.808 C18.957,15.588 18.809,15.367 18.734,15.073 L16.950,13.457 C16.579,13.090 15.910,13.090 15.538,13.457 L14.795,14.192 C14.200,14.779 13.234,14.779 12.416,14.192 C11.227,13.384 9.814,11.841 8.997,11.033 C8.179,10.225 6.618,8.682 5.800,7.654 C5.206,6.846 5.206,5.890 5.800,5.303 L6.544,4.569 C6.767,4.348 6.767,4.128 6.767,3.834 C6.767,3.540 6.618,3.393 6.544,3.099 L4.909,1.483 C4.685,1.336 4.388,1.189 4.165,1.189 Z"/>
</svg>