<svg 
 xmlns="http://www.w3.org/2000/svg"
 xmlns:xlink="http://www.w3.org/1999/xlink"
 width="27px" height="27px">
<path fill-rule="evenodd"  fill="rgb(253, 196, 1)"
 d="M23.819,11.088 L21.590,11.088 C21.590,14.258 21.590,17.096 21.590,20.263 C20.162,20.741 18.667,21.082 17.131,21.299 L17.131,20.850 C17.131,19.620 16.131,18.620 14.902,18.620 L10.344,18.620 C9.114,18.620 8.114,19.620 8.114,20.850 L8.114,21.087 C6.192,20.691 5.141,20.259 3.655,19.708 L3.655,14.804 C3.655,12.190 5.600,10.041 8.114,9.677 L8.114,13.318 C8.114,14.547 9.114,15.548 10.344,15.548 L14.902,15.548 C16.131,15.548 17.131,14.547 17.131,13.318 C17.131,11.210 17.131,9.543 17.131,7.372 C17.131,5.323 18.798,3.656 20.847,3.656 L21.718,3.656 C22.313,3.656 22.873,3.888 23.294,4.309 L25.396,6.411 C25.817,6.832 26.049,7.392 26.049,7.988 L26.049,8.858 C26.049,10.088 25.049,11.088 23.819,11.088 ZM20.847,6.629 C20.437,6.629 20.104,6.961 20.104,7.372 C20.104,7.782 20.437,8.115 20.847,8.115 C21.257,8.115 21.590,7.782 21.590,7.372 C21.590,6.961 21.257,6.629 20.847,6.629 ZM15.645,13.318 C15.645,13.728 15.312,14.061 14.902,14.061 L10.344,14.061 C9.934,14.061 9.600,13.728 9.600,13.318 L9.600,9.602 C12.315,9.602 12.874,9.602 15.645,9.602 L15.645,13.318 ZM20.847,2.169 C17.979,2.169 15.645,4.503 15.645,7.372 L15.645,8.115 L14.158,8.115 L14.158,7.372 C14.158,3.683 17.159,0.683 20.847,0.683 C21.904,0.683 22.787,1.424 23.015,2.412 C22.604,2.259 22.169,2.169 21.718,2.169 L20.847,2.169 ZM2.169,14.804 L2.169,18.545 C1.928,18.594 1.680,18.620 1.425,18.620 C1.015,18.620 0.682,18.287 0.682,17.876 L0.682,11.832 C0.682,9.578 2.685,7.797 5.017,8.165 C5.480,8.241 5.903,8.433 6.295,8.678 C3.865,9.699 2.169,12.086 2.169,14.804 ZM2.601,20.914 C4.088,21.366 7.287,23.077 13.416,23.077 C16.856,23.077 20.563,22.435 23.978,20.969 C24.718,20.653 25.602,20.989 25.929,21.751 C26.251,22.504 25.901,23.379 25.148,23.703 C21.296,25.346 17.217,26.049 13.415,26.049 C9.584,26.049 5.404,25.336 1.584,23.703 C0.831,23.380 0.480,22.504 0.802,21.751 C1.095,21.064 1.859,20.689 2.601,20.914 Z"/>
</svg>