<svg 
 xmlns="http://www.w3.org/2000/svg"
 xmlns:xlink="http://www.w3.org/1999/xlink"
 width="69px" height="53px">
<path fill-rule="evenodd"  stroke="rgb(4, 150, 255)" stroke-width="2px" stroke-linecap="butt" stroke-linejoin="miter" opacity="0.961" fill="rgb(255, 255, 255)"
 d="M63.125,44.809 L60.152,44.809 L60.152,50.282 C60.152,50.838 59.684,51.185 59.309,50.907 L51.084,44.809 L34.079,44.809 C31.948,44.809 30.205,43.072 30.205,40.950 L30.205,37.654 L33.921,37.654 C36.051,37.654 37.794,35.918 37.794,33.795 L37.794,26.684 L48.805,26.684 L48.805,19.124 L37.794,19.124 L37.794,8.154 L63.125,8.154 C65.255,8.154 66.998,9.890 66.998,12.013 L66.998,40.950 C66.998,43.072 65.255,44.809 63.125,44.809 ZM30.205,12.013 L30.205,19.124 L19.194,19.124 L19.194,26.684 L30.205,26.684 L30.205,37.654 L16.916,37.654 L8.690,43.753 C8.316,44.031 7.848,43.683 7.848,43.127 L7.848,37.654 L4.874,37.654 C2.744,37.654 1.001,35.918 1.001,33.795 L1.001,4.858 C1.001,2.736 2.744,0.999 4.874,0.999 L33.921,0.999 C36.051,0.999 37.794,2.736 37.794,4.858 L37.794,8.154 L34.079,8.154 C31.948,8.154 30.205,9.890 30.205,12.013 Z"/>
</svg>