<svg xmlns="http://www.w3.org/2000/svg" xmlns:xlink="http://www.w3.org/1999/xlink" version="1.1" id="Capa_1" x="0px" y="0px" viewBox="0 0 57.998 57.998" style="enable-background:new 0 0 57.998 57.998;" xml:space="preserve" width="512px" height="512px">
<g>
	<circle cx="17.499" cy="24" r="1.5" fill="#ffffff"/>
	<path d="M37.999,54.5c3.309,0,6-2.691,6-6s-2.691-6-6-6s-6,2.691-6,6S34.69,54.5,37.999,54.5z M37.999,44.5c2.206,0,4,1.794,4,4   s-1.794,4-4,4s-4-1.794-4-4S35.793,44.5,37.999,44.5z" fill="#ffffff"/>
	<path d="M48.999,19.5c-3.309,0-6,2.691-6,6s2.691,6,6,6s6-2.691,6-6S52.307,19.5,48.999,19.5z M48.999,29.5c-2.206,0-4-1.794-4-4   s1.794-4,4-4s4,1.794,4,4S51.205,29.5,48.999,29.5z" fill="#ffffff"/>
	<path d="M55.707,19.5c-1.706-1.906-4.151-3-6.708-3c-2.488,0-4.888,1.044-6.585,2.865c-1.462,1.569-2.295,3.544-2.403,5.653   L25.324,21.53l-5.48-1.37c-0.126-0.361-0.307-0.704-0.549-1.041l-0.296-0.357V4.483c-0.038-2.21-1.804-3.983-3.951-3.983   c-0.021,0-0.044,0-0.065,0c-2.232,0.038-4.02,1.839-3.983,4v4.61l-3.75-4.524C6.629,3.719,5.706,3.145,4.65,2.97   C3.586,2.793,2.534,3.04,1.668,3.659c-1.794,1.284-2.209,3.787-0.91,5.602l7.355,9.727l2.157,5.751   c0.599,1.596,1.931,2.841,3.563,3.331l4.861,1.458l12.776,12.775c-1.877,1.972-2.748,4.637-2.397,7.38   c0.518,4.038,3.833,7.3,7.882,7.757c0.342,0.039,0.683,0.058,1.022,0.058c2.213,0,4.36-0.807,6.015-2.285   c1.91-1.707,3.006-4.153,3.006-6.713c0-4.829-3.822-8.781-8.6-8.991c-1.467-1.37-8.71-8.201-12.907-12.161l16.681,4.009   c1.967,2.294,4.91,3.441,7.935,3.076c4.085-0.491,7.38-3.815,7.835-7.905C58.226,23.967,57.412,21.405,55.707,19.5z M12.999,4.483   c-0.018-1.075,0.887-1.964,2.017-1.983c0.011,0,0.021,0,0.032,0c1.06,0,1.932,0.898,1.951,2v11.849l-4-4.827V4.483z M55.954,26.307   c-0.354,3.177-2.913,5.759-6.085,6.141c-2.452,0.296-4.826-0.68-6.354-2.606l-0.214-0.27l-20.252-4.867l-0.942,2.199l0.508,0.479   C37.574,41.5,37.574,41.5,37.999,41.5c3.859,0,7,3.14,7,7c0,1.991-0.853,3.895-2.338,5.222c-1.506,1.346-3.452,1.963-5.48,1.731   c-3.146-0.355-5.721-2.888-6.122-6.023c-0.289-2.256,0.48-4.441,2.11-5.997c0.307-0.292,0.484-0.7,0.489-1.119   c0.005-0.416-0.154-0.808-0.449-1.102L19.754,27.758l-5.346-1.604c-1.038-0.311-1.885-1.103-2.265-2.117l-2.208-5.888L2.369,8.076   c-0.642-0.896-0.435-2.148,0.463-2.79c0.341-0.244,0.741-0.371,1.155-0.371c0.111,0,0.224,0.009,0.335,0.028   c0.529,0.088,0.991,0.374,1.343,0.862l5.334,6.435v0.002l6.72,8.11c0.161,0.229,0.271,0.499,0.323,0.804l0.11,0.642l6.698,1.675   l15.758,3.743c0.362,0.085,0.73,0,1.009-0.235c0.28-0.238,0.426-0.59,0.399-0.97c-0.139-1.97,0.522-3.846,1.86-5.282   c1.34-1.437,3.158-2.229,5.122-2.229c1.989,0,3.891,0.851,5.218,2.334C55.562,22.337,56.179,24.281,55.954,26.307z" fill="#ffffff"/>
</g>
</svg>
