<svg xmlns="http://www.w3.org/2000/svg" width="61" height="73" viewBox="0 0 61 73">
  <defs>
    <style>
      .cls-1 {
        fill: #22cbc2;
        fill-rule: evenodd;
      }
    </style>
  </defs>
  <path class="cls-1" d="M419.407,3398h-9.5a3.615,3.615,0,0,0,0,7.23h0.918l-5.633,5.67a17.079,17.079,0,0,0-9.973-3.18,17.333,17.333,0,0,0-15.232,9.11c-0.214-.01-0.429-0.02-0.646-0.02a17.468,17.468,0,0,0-3.592,34.54v5.78h-2.813a3.615,3.615,0,0,0,0,7.23h2.813v3.02a3.593,3.593,0,1,0,7.186,0v-3.02h2.812a3.615,3.615,0,0,0,0-7.23H382.94v-5.78a17.376,17.376,0,0,0,11.641-8.73c0.214,0.01.428,0.01,0.643,0.01a17.3,17.3,0,0,0,14.38-7.69,1.163,1.163,0,0,0-.31-1.61,1.15,1.15,0,0,0-1.6.31,15.018,15.018,0,0,1-12.066,6.66,17.494,17.494,0,0,0-13.117-23.2,15.017,15.017,0,0,1,12.716-7.06,14.724,14.724,0,0,1,8.461,2.63c-0.047.09-.088,0.18-0.126,0.27-0.01.03-.018,0.05-0.028,0.08-0.029.07-.055,0.15-0.079,0.23-0.011.03-.021,0.07-0.031,0.1-0.019.07-.035,0.14-0.05,0.21-0.007.04-.016,0.08-0.022,0.11-0.014.08-.024,0.16-0.033,0.23,0,0.03-.008.06-0.011,0.09-0.009.11-.014,0.21-0.014,0.32,0,0.02,0,.04,0,0.06,0,0.09,0,.17.012,0.26,0,0.03.007,0.07,0.011,0.1,0.009,0.08.019,0.15,0.031,0.22,0.007,0.03.013,0.07,0.021,0.11,0.016,0.07.033,0.14,0.053,0.22,0.008,0.03.016,0.06,0.025,0.09,0.031,0.1.065,0.2,0.1,0.3a0.158,0.158,0,0,0,.017.04c0.036,0.09.076,0.17,0.118,0.26,0.017,0.03.034,0.06,0.052,0.09,0.035,0.07.072,0.13,0.113,0.2,0.02,0.03.042,0.06,0.064,0.09a1.836,1.836,0,0,0,.135.19,0.561,0.561,0,0,0,.065.08,2.821,2.821,0,0,0,.225.25,3.534,3.534,0,0,0,2.542,1.06h0.181a0.135,0.135,0,0,0,.062-0.01h0.116a0.256,0.256,0,0,1,.086-0.01c0.03-.01.061-0.01,0.091-0.02s0.07-.01.106-0.01,0.045-.01.068-0.02a0.568,0.568,0,0,0,.125-0.03,0.077,0.077,0,0,0,.046-0.01,0.8,0.8,0,0,0,.147-0.04h0.02c0.118-.04.233-0.08,0.346-0.13a15.254,15.254,0,0,1,.964,13.02,1.172,1.172,0,0,0,.656,1.51,1.153,1.153,0,0,0,1.5-.66,17.59,17.59,0,0,0-1.292-15.33l2.155-2.17a1.157,1.157,0,1,0-1.632-1.64l-2.833,2.85a1.275,1.275,0,0,1-1.816,0,0.669,0.669,0,0,1-.088-0.1,1.3,1.3,0,0,1,0-1.63c0.027-.03.056-0.06,0.087-0.1l0.152-.15h0l8.307-8.36a1.172,1.172,0,0,0,.25-1.27,1.154,1.154,0,0,0-1.066-.71h-3.7a1.3,1.3,0,0,1,0-2.59h9.5a1.289,1.289,0,0,1,1.284,1.29v9.56a1.285,1.285,0,1,1-2.569,0v-3.53a1.17,1.17,0,0,0-.712-1.08,1.137,1.137,0,0,0-1.258.26l-3.068,3.08a1.175,1.175,0,0,0,0,1.65,1.155,1.155,0,0,0,1.632,0l1.1-1.11v0.73a3.593,3.593,0,1,0,7.186,0v-9.55a3.608,3.608,0,0,0-3.593-3.62h0Zm-33.655,61.45a1.29,1.29,0,0,1,0,2.58h-3.967a1.16,1.16,0,0,0-1.154,1.17v4.18a1.285,1.285,0,1,1-2.569,0v-4.18a1.159,1.159,0,0,0-1.154-1.17h-3.967a1.29,1.29,0,0,1,0-2.58h3.967a1.157,1.157,0,0,0,1.154-1.16v-7.72c0-.03,0-0.06,0-0.09a0.036,0.036,0,0,0,0-.01,1.284,1.284,0,0,1,.8-1.1s0-.01,0-0.01l0.108-.03a0.021,0.021,0,0,1,.02-0.01,0.316,0.316,0,0,1,.1-0.02,0.085,0.085,0,0,1,.049-0.01c0.023,0,.048-0.01.072-0.01a0.805,0.805,0,0,1,.253,0c0.024,0,.048.01,0.072,0.01a0.087,0.087,0,0,1,.049.01,0.316,0.316,0,0,1,.1.02,0.019,0.019,0,0,1,.02.01l0.108,0.03s0,0.01,0,.01a1.284,1.284,0,0,1,.8,1.1v0.01c0,0.03,0,.06,0,0.09v7.72a1.158,1.158,0,0,0,1.155,1.16h3.967Zm-3.146-10.4a3.6,3.6,0,0,0-2.966-2.09h-0.053a2.9,2.9,0,0,0-.481,0h-0.053a3.6,3.6,0,0,0-2.966,2.09,15.149,15.149,0,0,1,2.858-29.91,17.5,17.5,0,0,0,13.1,23.2,15.112,15.112,0,0,1-9.434,6.71h0Zm11.78-14.78a15.035,15.035,0,0,1-1.21,5.9,15.165,15.165,0,0,1-11.8-20.9,15.131,15.131,0,0,1,13.011,15h0Zm0,0" transform="translate(-362 -3398)"/>
</svg>
