<svg xmlns="http://www.w3.org/2000/svg" width="65" height="60" viewBox="0 0 65 60">
  <defs>
    <style>
      .cls-1 {
        fill: #0495ff;
        fill-rule: evenodd;
      }
    </style>
  </defs>
  <path class="cls-1" d="M333.31,2240.78h-2.241v-11.66a13.967,13.967,0,0,0-14.019-13.88h-1.1a13.967,13.967,0,0,0-14.018,13.88v11.66h-2.243a1.118,1.118,0,0,0-1.121,1.11v10a1.118,1.118,0,0,0,1.121,1.11H333.31a1.118,1.118,0,0,0,1.121-1.11v-10a1.118,1.118,0,0,0-1.121-1.11h0Zm-29.14-11.66a11.731,11.731,0,0,1,11.776-11.66h1.1a11.732,11.732,0,0,1,11.777,11.66v11.66H304.17v-11.66Zm28.018,21.66H300.809V2243h31.379v7.78Zm0,0-15.69-29.99a8.939,8.939,0,0,0-8.965,8.89,1.121,1.121,0,0,0,2.241,0,6.7,6.7,0,0,1,6.724-6.67,1.11,1.11,0,1,0,0-2.22h0Zm0,0,0-8.88a1.118,1.118,0,0,0,1.122-1.11v-16.69a1.122,1.122,0,0,0-2.243,0v16.69a1.118,1.118,0,0,0,1.121,1.11h0Zm0,0,15.284,5.55a1.153,1.153,0,0,0,.793-0.32l7.131-7.07a1.1,1.1,0,0,0,0-1.57,1.134,1.134,0,0,0-1.584,0l-7.133,7.07a1.1,1.1,0,0,0,0,1.57,1.146,1.146,0,0,0,.793.32h0Zm0,0-31.766-.32a1.141,1.141,0,0,0,1.585,0,1.1,1.1,0,0,0,0-1.57l-7.133-7.07a1.133,1.133,0,0,0-1.583,0,1.1,1.1,0,0,0,0,1.57Zm0,0,47.864,9.21H335.552a1.11,1.11,0,1,0,0,2.22H347.88a1.11,1.11,0,1,0,0-2.22h0Zm0,0-50.433,0H285.119a1.11,1.11,0,1,0,0,2.22h12.328a1.11,1.11,0,1,0,0-2.22h0Zm0,0" transform="translate(-284 -2193)"/>
</svg>
