<svg 
 xmlns="http://www.w3.org/2000/svg"
 xmlns:xlink="http://www.w3.org/1999/xlink"
 width="10px" height="9px">
<path fill-rule="evenodd"  fill="rgb(253, 196, 1)"
 d="M8.808,4.080 C8.985,3.899 9.048,3.636 8.971,3.389 C8.895,3.143 8.696,2.968 8.450,2.931 L6.269,2.600 C6.176,2.586 6.096,2.525 6.054,2.438 L5.079,0.377 C4.970,0.146 4.747,0.002 4.500,0.002 C4.252,0.002 4.030,0.146 3.920,0.377 L2.945,2.438 C2.904,2.525 2.824,2.587 2.730,2.600 L0.550,2.931 C0.304,2.968 0.104,3.143 0.028,3.389 C-0.048,3.636 0.014,3.900 0.191,4.080 L1.770,5.683 C1.836,5.752 1.867,5.850 1.851,5.947 L1.479,8.212 C1.446,8.411 1.496,8.605 1.620,8.758 C1.813,8.997 2.148,9.070 2.417,8.921 L4.367,7.852 C4.449,7.807 4.551,7.808 4.633,7.852 L6.584,8.921 C6.678,8.974 6.779,9.001 6.884,9.001 C7.074,9.001 7.255,8.912 7.380,8.758 C7.503,8.605 7.553,8.411 7.521,8.212 L7.148,5.947 C7.132,5.850 7.163,5.752 7.230,5.683 L8.808,4.080 Z"/>
</svg>