<svg 
 xmlns="http://www.w3.org/2000/svg"
 xmlns:xlink="http://www.w3.org/1999/xlink"
 width="22px" height="19px">
<path fill-rule="evenodd"  fill="rgb(26, 25, 25)"
 d="M-0.005,11.022 L-0.005,16.698 C-0.005,18.028 1.196,19.001 2.500,19.001 L13.922,19.001 C15.226,19.001 16.148,18.027 16.148,16.698 L16.148,16.622 L20.354,18.751 C20.432,18.792 20.484,18.811 20.571,18.811 C21.391,18.811 21.997,18.132 21.997,17.265 L21.997,9.917 C21.997,9.050 21.425,8.369 20.606,8.369 C20.519,8.369 20.468,8.390 20.390,8.431 L16.229,10.571 C16.027,9.492 15.129,8.669 14.024,8.616 C15.184,7.746 15.947,6.348 15.947,4.771 C15.947,2.138 13.846,-0.005 11.262,-0.005 C9.150,-0.005 7.363,1.427 6.778,3.386 C6.135,2.726 5.246,2.317 4.264,2.317 C2.308,2.317 0.716,3.939 0.716,5.931 C0.716,7.028 1.131,8.012 1.891,8.676 C0.846,8.925 -0.005,9.881 -0.005,11.022 L-0.005,11.022 ZM20.639,9.520 C20.806,9.572 20.884,9.750 20.884,9.917 L20.884,17.265 C20.884,17.431 20.806,17.610 20.639,17.661 L16.148,15.352 L16.148,11.818 L20.639,9.520 ZM7.443,7.421 C7.733,7.834 8.085,8.219 8.488,8.501 L6.640,8.501 C6.970,8.219 7.243,7.831 7.443,7.421 L7.443,7.421 ZM7.691,4.771 C7.691,2.764 9.293,1.130 11.263,1.130 C13.234,1.130 14.837,2.764 14.837,4.771 C14.837,6.779 13.234,8.411 11.263,8.411 C9.588,8.411 8.182,7.229 7.798,5.642 C7.782,5.445 7.751,5.254 7.705,5.066 C7.698,4.969 7.691,4.871 7.691,4.771 L7.691,4.771 ZM4.265,3.453 C5.371,3.453 6.305,4.209 6.600,5.238 C6.618,5.435 6.652,5.626 6.693,5.813 C6.694,5.853 6.698,5.892 6.698,5.932 C6.698,7.299 5.606,8.411 4.265,8.411 C2.923,8.411 1.831,7.299 1.831,5.932 C1.831,4.565 2.923,3.453 4.265,3.453 L4.265,3.453 ZM15.035,16.590 C15.035,17.295 14.474,17.866 13.782,17.866 L2.361,17.866 C1.669,17.866 1.109,17.295 1.109,16.590 L1.109,10.912 C1.109,10.208 1.669,9.637 2.361,9.637 L13.782,9.637 C14.474,9.637 15.035,10.208 15.035,10.912 L15.035,16.590 Z"/>
</svg>