<svg 
 xmlns="http://www.w3.org/2000/svg"
 xmlns:xlink="http://www.w3.org/1999/xlink"
 width="63px" height="59px">
<path fill-rule="evenodd"  fill="rgb(4, 150, 255)"
 d="M58.876,59.000 L9.357,59.000 C7.083,59.000 5.233,57.133 5.233,54.839 L5.233,41.636 L0.071,14.279 C-0.350,12.051 1.143,9.838 3.351,9.414 C3.382,9.408 41.566,2.074 41.566,2.074 C42.067,1.978 42.550,2.309 42.646,2.814 C42.741,3.320 42.412,3.807 41.912,3.903 L3.696,11.244 C2.477,11.478 1.651,12.696 1.884,13.930 C1.884,13.932 2.345,16.375 2.345,16.375 L55.466,6.172 L55.005,3.727 C54.772,2.498 53.563,1.665 52.341,1.900 C52.330,1.902 45.930,3.131 45.930,3.131 C45.429,3.228 44.946,2.896 44.851,2.391 C44.755,1.886 45.084,1.398 45.585,1.302 L51.995,0.071 C54.203,-0.353 56.397,1.151 56.818,3.379 C56.821,3.398 60.389,22.305 60.389,22.305 C61.917,22.915 63.000,24.418 63.000,26.173 L63.000,54.839 C63.000,57.133 61.150,59.000 58.876,59.000 ZM5.233,31.679 L5.233,26.172 C5.233,25.160 5.595,24.230 6.193,23.508 L3.779,23.972 L5.233,31.679 ZM55.811,8.001 L2.690,18.205 L3.434,22.143 L56.554,11.940 L55.811,8.001 ZM56.900,13.769 L13.978,22.013 L44.228,22.013 L44.011,20.865 C43.886,20.201 44.025,19.528 44.401,18.969 C44.778,18.411 45.347,18.033 46.005,17.907 L51.374,16.876 C51.529,16.846 51.688,16.831 51.845,16.831 C53.046,16.831 54.081,17.696 54.306,18.887 L54.895,22.013 L58.455,22.013 L56.900,13.769 ZM45.825,20.516 L46.107,22.013 L53.016,22.013 L52.492,19.236 C52.433,18.921 52.160,18.693 51.845,18.693 C51.803,18.693 51.761,18.697 51.719,18.705 L46.350,19.736 C46.177,19.770 46.027,19.869 45.927,20.017 C45.828,20.164 45.792,20.341 45.825,20.516 ZM61.154,26.173 C61.154,25.073 60.383,24.152 59.358,23.928 C59.200,23.894 59.038,23.875 58.876,23.875 L9.357,23.875 C8.101,23.875 7.079,24.906 7.079,26.173 L7.079,28.662 L61.154,28.662 L61.154,26.173 ZM61.154,30.524 L7.079,30.524 L7.079,34.532 L61.154,34.532 L61.154,30.524 ZM61.154,54.839 L61.154,36.395 L7.079,36.395 L7.079,54.839 C7.079,56.107 8.101,57.138 9.357,57.138 L58.876,57.138 C60.132,57.138 61.154,56.107 61.154,54.839 L61.154,54.839 ZM48.374,48.207 C47.148,48.207 46.027,47.746 45.172,46.987 C44.294,47.764 43.156,48.207 41.969,48.207 C39.290,48.207 37.111,46.009 37.111,43.307 C37.111,40.604 39.290,38.406 41.969,38.406 C43.156,38.406 44.294,38.849 45.172,39.626 C46.027,38.867 47.148,38.406 48.374,38.406 C51.052,38.406 53.232,40.604 53.232,43.306 C53.232,46.009 51.052,48.207 48.374,48.207 ZM43.969,41.244 C43.974,41.233 44.042,41.104 44.036,41.099 C43.482,40.571 42.742,40.268 41.969,40.268 C40.308,40.268 38.957,41.631 38.957,43.307 C38.957,44.982 40.308,46.345 41.969,46.345 C42.742,46.345 43.482,46.042 44.036,45.514 C43.695,44.834 43.516,44.068 43.516,43.307 C43.516,42.597 43.672,41.887 43.969,41.244 ZM48.374,40.268 C46.741,40.268 45.362,41.660 45.362,43.307 C45.362,44.959 46.747,46.345 48.374,46.345 C50.035,46.345 51.386,44.982 51.386,43.307 C51.386,41.631 50.035,40.268 48.374,40.268 ZM41.247,51.424 C41.247,51.938 40.833,52.355 40.324,52.355 L33.941,52.355 C33.431,52.355 33.018,51.938 33.018,51.424 C33.018,50.909 33.431,50.493 33.941,50.493 L40.324,50.493 C40.833,50.493 41.247,50.909 41.247,51.424 ZM29.103,52.355 L22.720,52.355 C22.210,52.355 21.797,51.938 21.797,51.424 C21.797,50.909 22.210,50.493 22.720,50.493 L29.103,50.493 C29.613,50.493 30.026,50.909 30.026,51.424 C30.026,51.938 29.613,52.355 29.103,52.355 ZM18.549,47.339 L13.083,47.339 C11.701,47.339 10.576,46.205 10.576,44.810 L10.576,40.933 C10.576,39.539 11.701,38.404 13.083,38.404 L18.549,38.404 C19.931,38.404 21.055,39.539 21.055,40.933 L21.055,44.810 C21.055,46.205 19.931,47.339 18.549,47.339 ZM19.210,40.933 C19.210,40.566 18.913,40.267 18.549,40.267 L13.083,40.267 C12.719,40.267 12.422,40.566 12.422,40.933 L12.422,44.810 C12.422,45.178 12.719,45.477 13.083,45.477 L18.549,45.477 C18.913,45.477 19.210,45.178 19.210,44.810 L19.210,40.933 ZM11.499,50.493 L17.882,50.493 C18.392,50.493 18.805,50.909 18.805,51.424 C18.805,51.938 18.392,52.355 17.882,52.355 L11.499,52.355 C10.990,52.355 10.576,51.938 10.576,51.424 C10.576,50.909 10.990,50.493 11.499,50.493 ZM45.162,50.493 L51.544,50.493 C52.054,50.493 52.467,50.909 52.467,51.424 C52.467,51.938 52.054,52.355 51.544,52.355 L45.162,52.355 C44.652,52.355 44.239,51.938 44.239,51.424 C44.239,50.909 44.652,50.493 45.162,50.493 Z"/>
</svg>