<svg version="1.1" id="Capa_1" xmlns="http://www.w3.org/2000/svg" xmlns:xlink="http://www.w3.org/1999/xlink" x="0px" y="0px"
	 viewBox="0 0 512 512" style="enable-background:new 0 0 512 512;" xml:space="preserve">
<g>
	<g>
		<path fill='#0495ff' d="M474.9,220.8h-7v-21.1v-75c0-24.6-20-44.5-44.5-44.5H230.2L100,43c0,0-0.1,0-0.1,0c0,0-0.1,0-0.1,0c-0.1,0-0.2,0-0.2,0
			c-0.1,0-0.2-0.1-0.4-0.1c-0.1,0-0.2,0-0.3,0c-0.1,0-0.3,0-0.4,0c-0.1,0-0.2,0-0.3,0c-0.1,0-0.3,0-0.4,0c-0.1,0-0.2,0-0.3,0
			c-0.1,0-0.3,0-0.4,0c-0.1,0-0.2,0-0.3,0c-0.1,0-0.3,0.1-0.4,0.1c-0.1,0-0.2,0-0.2,0.1c-0.1,0-0.3,0.1-0.4,0.1
			c-0.1,0-0.2,0.1-0.2,0.1c-0.1,0.1-0.3,0.1-0.4,0.2c-0.1,0-0.1,0.1-0.2,0.1c-0.1,0.1-0.3,0.1-0.4,0.2c-0.1,0-0.1,0.1-0.2,0.1
			C94.2,43.9,94,44,93.9,44c-0.1,0-0.1,0.1-0.2,0.1c-0.1,0.1-0.2,0.2-0.3,0.3c-0.1,0.1-0.1,0.1-0.2,0.2c-0.1,0.1-0.2,0.2-0.3,0.3
			c-0.1,0.1-0.1,0.1-0.2,0.2c-0.1,0.1-0.2,0.2-0.3,0.3c-0.1,0.1-0.1,0.2-0.2,0.2c-0.1,0.1-0.1,0.2-0.2,0.3c-0.1,0.1-0.1,0.2-0.2,0.3
			c-0.1,0.1-0.1,0.2-0.2,0.3c-0.1,0.1-0.1,0.2-0.1,0.3c0,0.1-0.1,0.2-0.1,0.3c0,0.1-0.1,0.2-0.1,0.3c0,0.1-0.1,0.1-0.1,0.2
			c0,0,0,0.1,0,0.1c0,0,0,0.1,0,0.1l-8,32.2H60.5c-24.5,0-44.4,19.9-44.5,44.4c0,0.1,0,0.1,0,0.1l0,271.9h14.1l0-239.4
			c8,7.5,18.7,12.1,30.5,12.1h362.8c0,0,0,0,0,0c16.8,0,30.4,13.7,30.4,30.5V249h-77.4c0,0,0,0,0,0c-0.2,0-0.4,0-0.6,0
			c-0.2,0-0.4,0.1-0.7,0.1c0,0-0.1,0-0.1,0c-0.2,0-0.4,0.1-0.5,0.1c0,0-0.1,0-0.1,0c-0.2,0-0.3,0.1-0.5,0.2c-0.1,0-0.1,0-0.2,0.1
			c-0.1,0.1-0.3,0.1-0.4,0.2c-0.1,0-0.2,0.1-0.2,0.1c-0.1,0.1-0.2,0.1-0.3,0.2c-0.1,0.1-0.2,0.1-0.3,0.2c-0.1,0-0.1,0.1-0.2,0.1
			c-0.1,0.1-0.2,0.2-0.4,0.3c0,0-0.1,0.1-0.1,0.1c-0.1,0.1-0.2,0.2-0.4,0.3c-0.1,0.1-0.1,0.1-0.2,0.2c-0.1,0.1-0.2,0.2-0.3,0.3
			c-0.1,0.2-0.3,0.4-0.4,0.6c0,0,0,0,0,0l-37.5,56.3c-0.3,0.4-0.5,0.8-0.7,1.2c-0.1,0.2-0.1,0.3-0.2,0.5c0,0,0,0.1-0.1,0.1
			c-0.1,0.2-0.1,0.3-0.1,0.5c0,0,0,0.1,0,0.1c0,0.2-0.1,0.3-0.1,0.5c0,0.1,0,0.1,0,0.2c0,0.1,0,0.3,0,0.4c0,0.1,0,0.2,0,0.3
			c0,0.1,0,0.2,0,0.3c0,0.1,0,0.3,0,0.4c0,0.1,0,0.1,0,0.2c0,0.2,0,0.3,0.1,0.5c0,0,0,0.1,0,0.1c0,0.2,0.1,0.4,0.1,0.5
			c0,0,0,0.1,0.1,0.1c0.1,0.2,0.1,0.3,0.2,0.5c0.2,0.4,0.4,0.8,0.7,1.2l37.5,56.2c0,0,0,0,0,0c0.2,0.2,0.3,0.4,0.5,0.6
			c0.1,0.1,0.1,0.1,0.2,0.2c0.1,0.1,0.2,0.3,0.4,0.4c0.1,0.1,0.2,0.1,0.2,0.2c0.1,0.1,0.3,0.2,0.4,0.3c0.1,0,0.1,0.1,0.2,0.1
			c0.2,0.1,0.4,0.3,0.7,0.4c0.1,0,0.1,0.1,0.2,0.1c0.2,0.1,0.4,0.2,0.6,0.2c0.1,0,0.1,0.1,0.2,0.1c0.2,0.1,0.4,0.1,0.5,0.2
			c0.1,0,0.2,0,0.2,0.1c0.2,0,0.4,0.1,0.6,0.1c0.1,0,0.1,0,0.2,0c0.2,0,0.5,0,0.7,0c0,0,0,0,0.1,0c0,0,0,0,0,0h77.3v49.2
			c0,16.8-13.7,30.5-30.5,30.5H60.5c-16.8,0-30.5-13.7-30.5-30.5c0,0,0-0.1,0-0.1v-28H16v28.1c0,0.1,0,0.1,0,0.2
			c0.1,24.5,20,44.3,44.5,44.3h362.8c24.6,0,44.5-20,44.5-44.5c0,0,0,0,0,0v-49.2h7c11.6,0,21.1-9.5,21.1-21.1V241.9
			C496,230.3,486.5,220.8,474.9,220.8z M103.1,58.5L227.2,94c0,0,0,0,0,0l83.2,23.8h-222L103.1,58.5z M453.8,167.3
			c-8-7.5-18.7-12.1-30.5-12.1c0,0,0,0,0,0H60.5c-16.8,0-30.5-13.7-30.5-30.5s13.7-30.5,30.5-30.5h19.1l-5.9,23.4H60.5
			c-3.9,0-7,3.1-7,7c0,3.9,3.1,7,7,7h18.7c0,0,0,0,0,0c0,0,0,0,0,0h281.2c0,0,0,0,0,0c0,0,0,0,0,0H414c3.9,0,7-3.1,7-7
			c0-3.9-3.1-7-7-7h-52.4l-82.1-23.4h143.9c16.8,0,30.5,13.7,30.5,30.5V167.3z M481.9,354.4L481.9,354.4c0,3.9-3.2,7-7,7h-94.7
			l-32.8-49.2l32.8-49.2h94.7c0.1,0,0.2,0,0.3,0c2.4,0,4.6-0.5,6.7-1.2L481.9,354.4L481.9,354.4z M474.9,249c0,0-0.1,0-0.1,0h-6.9
			v-14.1h7c3.9,0,7,3.2,7,7S478.8,249,474.9,249z"/>
	</g>
</g>
<g>
	<g>
		<path  fill='#0495ff' d="M414.5,288.5c-15.2,0-27.5,12.3-27.5,27.5s12.3,27.5,27.5,27.5S442,331.2,442,316C442,300.8,429.7,288.5,414.5,288.5z
			 M414.5,328.5c-6.9,0-12.5-5.6-12.5-12.5s5.6-12.5,12.5-12.5S427,309.1,427,316S421.4,328.5,414.5,328.5z"/>
	</g>
</g>
<rect fill='#ff0d0d' x="249.5" y="-106" transform="matrix(0.7071 -0.7071 0.7071 0.7071 -106.0388 256.0002)" class="st0" width="13" height="724.1"/>
<rect fill='#ff0d0d' x="-106" y="249.5" transform="matrix(0.7071 -0.7071 0.7071 0.7071 -106.0388 256.0002)" class="st0" width="724.1" height="13"/>
</svg>
